<?xml version="1.0" standalone="no"?>
<!DOCTYPE svg PUBLIC "-//W3C//DTD SVG 1.1//EN" "http://www.w3.org/Graphics/SVG/1.1/DTD/svg11.dtd" >
<svg xmlns="http://www.w3.org/2000/svg" xmlns:xlink="http://www.w3.org/1999/xlink" version="1.1">
<metadata>
Created by FontForge 20201107 at Wed Feb 14 13:39:24 2024
 By 
Typeface (c) RantauType. 2023. All Rights Reserved
</metadata>
<defs>
<font id="Helison" horiz-adv-x="911" >
  <font-face 
    font-family="Helison"
    font-weight="400"
    font-stretch="normal"
    units-per-em="2048"
    panose-1="0 0 0 0 0 0 0 0 0 0"
    ascent="1638"
    descent="-410"
    x-height="1061"
    cap-height="1485"
    bbox="-492 -450.624 2068 2001"
    underline-thickness="102"
    underline-position="-307"
    unicode-range="U+000A-FB02"
  />
<missing-glyph horiz-adv-x="1079" 
d="M205 1434h874v-1434h-874v1434zM262 1393l379 -633l381 633h-760zM668 717l370 -621v1239zM616 717l-368 614v-1231zM643 674l-379 -631h758z" />
    <glyph glyph-name="fi.liga" unicode="fi" horiz-adv-x="1017" 
d="M686 1485v-289q-63 78 -160 78q-96 0 -96 -64v-149h528v-911l66 -150h-426l64 150v700h-232v-700l66 -150h-426l63 150v700h-76v211h76v170q0 115 70 184.5t186 69.5h297z" />
    <glyph glyph-name=".notdef" horiz-adv-x="1079" 
d="M205 1434h874v-1434h-874v1434zM262 1393l379 -633l381 633h-760zM668 717l370 -621v1239zM616 717l-368 614v-1231zM643 674l-379 -631h758z" />
    <glyph glyph-name=".null" horiz-adv-x="0" 
 />
    <glyph glyph-name=".null" horiz-adv-x="0" 
 />
    <glyph glyph-name="nonmarkingreturn" horiz-adv-x="0" 
 />
    <glyph glyph-name="nonmarkingreturn.1" unicode="&#xa;" horiz-adv-x="0" 
 />
    <glyph glyph-name="space" unicode=" " horiz-adv-x="458" 
 />
    <glyph glyph-name="exclam" unicode="!" horiz-adv-x="417" 
d="M205 428l-107 1057h318l-105 -1057h-106zM98 160q0 65 46.5 112t113.5 47q64 0 111 -47t47 -112q0 -66 -46.5 -113t-111.5 -47q-67 0 -113.5 47t-46.5 113z" />
    <glyph glyph-name="quotedbl" unicode="&#x22;" horiz-adv-x="765" 
d="M553 893l-104 592h317l-107 -592h-106zM172 893l-106 592h317l-104 -592h-107z" />
    <glyph glyph-name="numbersign" unicode="#" horiz-adv-x="1198" 
d="M182 801v211h242l172 473h225l-172 -473h164l172 473h225l-172 -473h146v-211h-223l-54 -150h148v-211h-228l-157 -440h-226l158 440h-162l-159 -440h-226l160 440h-162v211h240l53 150h-164zM518 651h164l53 150h-164z" />
    <glyph glyph-name="dollar" unicode="$" horiz-adv-x="1069" 
d="M498 946l411 -145q71 -26 114.5 -89t43.5 -139v-319q0 -114 -69.5 -184t-184.5 -70h-111v-213h-213v213h-94q-115 0 -185.5 70t-70.5 184v373l320 -107v-244q0 -29 17 -46t46 -17h164q28 0 46 17t18 46v179q0 29 -16.5 52t-43.5 32l-411 147q-72 25 -116 87.5t-44 139.5
v318q0 115 70 184.5t184 69.5h116v213h213v-213h91q114 0 184 -69.5t70 -184.5v-379l-320 104v254q0 28 -17 46t-46 18h-162q-29 0 -47.5 -18t-18.5 -46v-178q0 -29 17 -53t45 -33z" />
    <glyph glyph-name="percent" unicode="%" horiz-adv-x="1482" 
d="M82 795v546q0 66 39.5 105t105.5 39h191q63 0 102 -39t39 -105v-546q0 -66 -39 -106t-102 -40h-191q-66 0 -105.5 40t-39.5 106zM305 0l785 1485h182l-785 -1485h-182zM297 768h49q15 0 25 10t10 27v526q0 15 -10 25t-25 10h-49q-17 0 -27 -10t-10 -25v-526q0 -37 37 -37
zM1006 145v547q0 65 39.5 104.5t103.5 39.5h192q63 0 102.5 -40t39.5 -104v-547q0 -66 -39.5 -105.5t-102.5 -39.5h-192q-65 0 -104 39.5t-39 105.5zM1221 119h47q37 0 37 37v526q0 15 -10 25t-27 10h-47q-17 0 -27 -10t-10 -25v-526q0 -37 37 -37z" />
    <glyph glyph-name="ampersand" unicode="&#x26;" horiz-adv-x="1081" 
d="M1073 702v-702h-317v100q-8 -38 -50 -69t-65 -31h-272q-114 0 -184 70t-70 184v342q0 56 56.5 107t152.5 65q-83 4 -130 46.5t-47 100.5v316q0 115 69.5 184.5t184.5 69.5h418q115 0 184.5 -69.5t69.5 -184.5v-146l-317 -106v231q0 28 -17.5 46t-46.5 18h-164
q-29 0 -46 -18t-17 -46v-295q0 -29 17 -46t46 -17h398q66 0 106.5 -41.5t40.5 -108.5zM692 639h-194q-29 0 -47.5 -17.5t-18.5 -46.5v-299q0 -29 18 -46t48 -17h194q29 0 46.5 17t17.5 46v299q0 29 -17.5 46.5t-46.5 17.5z" />
    <glyph glyph-name="quotesingle" unicode="'" horiz-adv-x="385" 
d="M172 893l-106 592h317l-104 -592h-107z" />
    <glyph glyph-name="parenleft" unicode="(" horiz-adv-x="702" 
d="M659 1485v-211h-141q-29 0 -47 -18t-18 -46v-1360q0 -28 18 -45.5t47 -17.5h141v-211h-270q-114 0 -184 69.5t-70 184.5v1401q0 115 70 184.5t184 69.5h270z" />
    <glyph glyph-name="parenright" unicode=")" horiz-adv-x="702" 
d="M221 1485h271q114 0 183.5 -69.5t69.5 -184.5v-1401q0 -115 -69.5 -184.5t-183.5 -69.5h-271v211h141q29 0 47.5 17.5t18.5 45.5v1360q0 28 -18.5 46t-47.5 18h-141v211z" />
    <glyph glyph-name="asterisk" unicode="*" horiz-adv-x="915" 
d="M184 741l-123 207l312 113l-312 113l123 208l244 -215l-61 318h241l-61 -318l246 215l122 -208l-313 -113l313 -113l-122 -207l-246 213l61 -317h-241l61 317z" />
    <glyph glyph-name="plus" unicode="+" horiz-adv-x="899" 
d="M49 580v213h318v317h213v-317h319v-213h-319v-318h-213v318h-318z" />
    <glyph glyph-name="comma" unicode="," horiz-adv-x="385" 
d="M180 4q-55 25 -84.5 65.5t-29.5 90.5q0 65 46 112t113 47q68 0 113 -56.5t45 -156.5q0 -125 -70 -219t-188 -133l-25 49q87 29 123 86q47 79 -43 115z" />
    <glyph glyph-name="hyphenminus" unicode="-" horiz-adv-x="698" 
d="M698 467h-637v213h637v-213z" />
    <glyph glyph-name="period" unicode="." horiz-adv-x="385" 
d="M225 0q-66 0 -112.5 47t-46.5 113t46.5 112.5t112.5 46.5t112 -46.5t46 -112.5t-46 -113t-112 -47z" />
    <glyph glyph-name="slash" unicode="/" horiz-adv-x="989" 
d="M221 0l541 1485h225l-541 -1485h-225z" />
    <glyph glyph-name="zero" unicode="0" horiz-adv-x="980" 
d="M131 254v977q0 115 70 184.5t184 69.5h340q116 0 186 -69.5t70 -184.5v-977q0 -114 -70.5 -184t-185.5 -70h-340q-114 0 -184 70t-70 184zM514 213h84q29 0 46.5 17t17.5 46v934q0 28 -17.5 46t-46.5 18h-84q-29 0 -47 -18t-18 -46v-934q0 -29 18 -46t47 -17z" />
    <glyph glyph-name="one" unicode="1" horiz-adv-x="591" 
d="M123 0l63 150v1095h-149v193l317 47h150v-1335l63 -150h-444z" />
    <glyph glyph-name="two" unicode="2" horiz-adv-x="1071" 
d="M690 883q26 9 43 33t17 53v241q0 28 -18 46t-46 18h-164q-29 0 -46 -18t-17 -46v-188l-320 -107v316q0 115 70 184.5t186 69.5h418q115 0 184.5 -69.5t69.5 -184.5v-381q0 -77 -44 -139.5t-114 -87.5l-411 -148q-28 -9 -45 -32.5t-17 -51.5v-137h291v160l320 106v-520
h-928v510q0 76 44 138.5t116 88.5z" />
    <glyph glyph-name="three" unicode="3" horiz-adv-x="1071" 
d="M403 639v213h248q29 0 46.5 17t17.5 46v295q0 28 -17.5 46t-46.5 18h-162q-29 0 -47 -18t-18 -46v-188l-318 -107v316q0 115 70 184.5t184 69.5h420q114 0 184 -69.5t70 -184.5v-316q0 -58 -46.5 -100.5t-129.5 -46.5q95 -14 151 -65t56 -107v-342q0 -114 -69.5 -184
t-184.5 -70h-451q-114 0 -184 70t-70 184v168l318 106v-252q0 -29 18 -46t47 -17h195q29 0 46.5 17t17.5 46v299q0 29 -17.5 46.5t-46.5 17.5h-281z" />
    <glyph glyph-name="four" unicode="4" horiz-adv-x="1103" 
d="M680 0l63 150v188h-522v276l522 871h318v-871h115v-276h-115v-188l65 -150h-446zM469 614h274v457z" />
    <glyph glyph-name="five" unicode="5" horiz-adv-x="1071" 
d="M690 602l-411 148q-72 25 -116 87.5t-44 139.5v508h928v-518l-320 104v160h-291v-135q0 -29 17 -52t45 -34l411 -146q71 -26 114.5 -88.5t43.5 -138.5v-383q0 -114 -69.5 -184t-184.5 -70h-418q-115 0 -185.5 70t-70.5 184v317l320 -106v-189q0 -29 17 -46t46 -17h164
q28 0 46 17t18 46v242q0 29 -16.5 52t-43.5 32z" />
    <glyph glyph-name="six" unicode="6" horiz-adv-x="1032" 
d="M131 254v977q0 115 70 184.5t184 69.5h377q114 0 184 -69.5t70 -184.5v-252l-318 106v125q0 28 -17.5 46t-45.5 18h-121q-29 0 -47 -18t-18 -46v-299h333q116 0 186 -70.5t70 -185.5v-401q0 -114 -70.5 -184t-185.5 -70h-397q-114 0 -184 70t-70 184zM514 213h141
q29 0 46.5 17t17.5 46v359q0 29 -17.5 46t-46.5 17h-206v-422q0 -29 18 -46t47 -17z" />
    <glyph glyph-name="seven" unicode="7" horiz-adv-x="976" 
d="M614 0h-319v530q0 26 4 49.5t16.5 48t19.5 39.5t28.5 41.5t28 34t33.5 36.5t30 32l135 145q5 6 17.5 19t15.5 17t10.5 13.5t9.5 15t4 14t2 18.5v178h-291v-160l-317 -104v518h928v-488q0 -28 -9.5 -57.5t-21 -51t-35 -52t-36.5 -45t-42.5 -45.5t-36.5 -39l-135 -146
q-22 -22 -30.5 -40t-8.5 -46v-475z" />
    <glyph glyph-name="eight" unicode="8" horiz-adv-x="1040" 
d="M356 1485h451v-2q102 -9 162.5 -77t60.5 -175v-316q0 -56 -57 -99.5t-142 -47.5q95 -14 152 -65t57 -107v-342q0 -114 -70.5 -184t-185.5 -70h-407q-114 0 -184 70t-70 184v342q0 56 56.5 107t152.5 65q-85 4 -142 47.5t-57 99.5v316q0 107 60.5 175t162.5 77v2zM453 915
q0 -29 17 -46t46 -17h131q29 0 46.5 17t17.5 46v295q0 28 -17.5 46t-46.5 18h-131q-29 0 -46 -18t-17 -46v-295zM440 276q0 -29 18 -46t48 -17h151q29 0 46.5 17t17.5 46v299q0 29 -17.5 46.5t-46.5 17.5h-151q-29 0 -47.5 -17.5t-18.5 -46.5v-299z" />
    <glyph glyph-name="nine" unicode="9" horiz-adv-x="1032" 
d="M1026 1231v-977q0 -114 -70.5 -184t-185.5 -70h-375q-115 0 -185.5 70t-70.5 184v254l320 -107v-125q0 -29 17 -46t46 -17h121q29 0 46.5 17t17.5 46v299h-334q-114 0 -184 70t-70 184v402q0 115 70 184.5t184 69.5h397q116 0 186 -69.5t70 -184.5zM643 1274h-141
q-29 0 -47.5 -18t-18.5 -46v-358q0 -29 18.5 -46.5t47.5 -17.5h205v422q0 28 -17.5 46t-46.5 18z" />
    <glyph glyph-name="colon" unicode=":" horiz-adv-x="403" 
d="M86 903q0 65 46.5 111.5t113.5 46.5q64 0 110.5 -46.5t46.5 -111.5q0 -66 -46 -113t-111 -47q-67 0 -113.5 47t-46.5 113zM86 160q0 65 46.5 112t113.5 47q64 0 110.5 -47t46.5 -112q0 -66 -46 -113t-111 -47q-67 0 -113.5 47t-46.5 113z" />
    <glyph glyph-name="semicolon" unicode=";" horiz-adv-x="405" 
d="M86 903q0 65 46.5 111.5t113.5 46.5q64 0 110.5 -46.5t46.5 -111.5q0 -66 -46 -113t-111 -47q-67 0 -113.5 47t-46.5 113zM201 4q-55 25 -85 65.5t-30 90.5q0 65 46.5 112t113.5 47q68 0 112.5 -56.5t44.5 -156.5q0 -125 -70 -219t-188 -133l-24 49q87 29 123 86
q47 79 -43 115z" />
    <glyph glyph-name="less" unicode="&#x3c;" horiz-adv-x="919" 
d="M53 578v231l850 346v-229l-571 -234l571 -231v-230z" />
    <glyph glyph-name="equal" unicode="=" horiz-adv-x="931" 
d="M82 758v213h850v-213h-850zM82 397v213h850v-213h-850z" />
    <glyph glyph-name="greater" unicode="&#x3e;" horiz-adv-x="919" 
d="M936 578l-850 -347v230l571 231l-571 234v229l850 -346v-231z" />
    <glyph glyph-name="question" unicode="?" horiz-adv-x="983" 
d="M524 412h-213v225q0 74 25.5 111t95.5 77l174 101q60 31 60 84v200q0 28 -17.5 46t-46.5 18h-162q-29 0 -47 -18t-18 -46v-188l-318 -107v316q0 115 70 184.5t184 69.5h420q114 0 184 -69.5t70 -184.5v-254q0 -131 -160 -227l-241 -148q-60 -34 -60 -84v-106zM252 160
q0 65 47 112t113 47t112.5 -47t46.5 -112q0 -66 -46.5 -113t-112.5 -47t-113 47t-47 113z" />
    <glyph glyph-name="at" unicode="@" horiz-adv-x="1779" 
d="M1526 0h-408q-38 0 -62 24t-24 62v20l-43 -57q-40 -49 -104 -49h-74q-115 0 -185.5 70t-70.5 184v553q0 114 70.5 184t185.5 70h74q64 0 104 -49l43 -58v107h363l-66 -148v-637q0 -29 18 -46t48 -17h108q30 0 48 17t18 46v934q0 28 -18.5 46t-47.5 18h-1091
q-29 0 -46.5 -18t-17.5 -46v-1360q0 -28 17.5 -45.5t46.5 -17.5h1325v-211h-1348q-114 0 -184 69.5t-70 184.5v1401q0 115 70 184.5t184 69.5h1137q114 0 184 -69.5t70 -184.5v-977q0 -114 -70 -184t-184 -70zM1032 213v637h-117q-28 0 -45.5 -18t-17.5 -46v-510
q0 -29 17.5 -46t45.5 -17h117z" />
    <glyph glyph-name="A" unicode="A" horiz-adv-x="1193" 
d="M-41 0l96 150l256 1187l-30 148h591l-32 -148l258 -1187l94 -150h-453l33 150l-39 196h-315l-39 -196l33 -150h-453zM459 559h237l-118 625z" />
    <glyph glyph-name="B" unicode="B" horiz-adv-x="1120" 
d="M121 150v1187l-64 148h758q115 0 184.5 -69.5t69.5 -184.5v-316q0 -58 -46.5 -100.5t-129.5 -46.5q96 -14 152.5 -65t56.5 -107v-342q0 -114 -70 -184t-184 -70h-791zM688 852q28 0 46 17t18 46v295q0 28 -18 46t-46 18h-248v-422h248zM440 639v-426h279q29 0 46 17
t17 46v299q0 29 -17 46.5t-46 17.5h-279z" />
    <glyph glyph-name="C" unicode="C" horiz-adv-x="1060" 
d="M123 254v977q0 115 70 184.5t184 69.5h440q115 0 184.5 -69.5t69.5 -184.5v-223l-317 -105v307q0 28 -18 46t-46 18h-184q-29 0 -47.5 -18t-18.5 -46v-934q0 -29 18 -46t48 -17h184q28 0 46 17t18 46v244l317 107v-373q0 -114 -69.5 -184t-184.5 -70h-440q-114 0 -184 70
t-70 184z" />
    <glyph glyph-name="D" unicode="D" horiz-adv-x="1103" 
d="M57 0l64 150v1187l-64 148h758q115 0 184.5 -69.5t69.5 -184.5v-977q0 -114 -69.5 -184t-184.5 -70h-758zM440 213h248q28 0 46 17t18 46v934q0 28 -18 46t-46 18h-248v-1061z" />
    <glyph glyph-name="E" unicode="E" horiz-adv-x="903" 
d="M57 0l64 150v1187l-64 148h832v-289l-139 78h-310v-424h248l148 63v-340l-148 64h-248v-424h310l139 78v-291h-832z" />
    <glyph glyph-name="F" unicode="F" horiz-adv-x="878" 
d="M57 0l64 150v1187l-64 148h832v-289l-139 78h-310v-424h248l148 63v-340l-148 64h-248v-487l64 -150h-447z" />
    <glyph glyph-name="G" unicode="G" horiz-adv-x="1067" 
d="M123 254v977q0 115 70 184.5t184 69.5h440q115 0 184.5 -69.5t69.5 -184.5v-223l-317 -105v307q0 28 -18 46t-46 18h-184q-29 0 -47.5 -18t-18.5 -46v-934q0 -29 18 -46t48 -17h184q28 0 46 17t18 46v293h-64l-141 -80v291h522v-526q0 -114 -69.5 -184t-184.5 -70h-440
q-114 0 -184 70t-70 184z" />
    <glyph glyph-name="H" unicode="H" horiz-adv-x="1177" 
d="M57 0l64 150v1187l-64 148h447l-64 -148v-487h355v487l-64 148h445l-64 -148v-1187l64 -150h-445l64 150v487h-355v-487l64 -150h-447z" />
    <glyph glyph-name="I" unicode="I" horiz-adv-x="503" 
d="M57 0l64 150v1187l-64 148h447l-64 -148v-1187l64 -150h-447z" />
    <glyph glyph-name="J" unicode="J" horiz-adv-x="743" 
d="M-20 0v291l139 -78h143q29 0 46.5 17t17.5 46v1061l-64 148h445l-64 -148v-1083q0 -114 -69.5 -184t-184.5 -70h-409z" />
    <glyph glyph-name="K" unicode="K" horiz-adv-x="1232" 
d="M57 0l64 150v1187l-64 148h447l-64 -148v-393l281 393l33 148h463l-160 -148l-293 -409l387 -778l135 -150h-485l-8 150l-238 483l-115 -160v-323l64 -150h-447z" />
    <glyph glyph-name="L" unicode="L" horiz-adv-x="851" 
d="M57 1485h447l-64 -148v-1124h310l139 78v-291h-832l64 150v1187z" />
    <glyph glyph-name="M" unicode="M" horiz-adv-x="1546" 
d="M57 0l64 150v1187l-64 148h533l213 -918l209 918h532l-63 -148v-1187l63 -150h-444l63 150v856l-231 -1006h-260l-232 1006v-856l64 -150h-447z" />
    <glyph glyph-name="N" unicode="N" horiz-adv-x="1165" 
d="M57 0l64 150v1187l-64 148h422l305 -887v739l-63 148h446l-63 -148v-1337h-383l-281 819v-669l64 -150h-447z" />
    <glyph glyph-name="O" unicode="O" horiz-adv-x="1114" 
d="M123 254v977q0 115 70 184.5t184 69.5h483q114 0 184 -69.5t70 -184.5v-977q0 -114 -70 -184t-184 -70h-483q-114 0 -184 70t-70 184zM506 213h225q30 0 48 17t18 46v934q0 28 -18.5 46t-47.5 18h-225q-29 0 -47.5 -18t-18.5 -46v-934q0 -29 18 -46t48 -17z" />
    <glyph glyph-name="P" unicode="P" horiz-adv-x="1064" 
d="M121 1337l-64 148h758q115 0 184.5 -69.5t69.5 -184.5v-402q0 -114 -69.5 -184t-184.5 -70h-375v-425l64 -150h-447l64 150v1187zM440 788h248q28 0 46 17.5t18 46.5v358q0 28 -18 46t-46 18h-248v-486z" />
    <glyph glyph-name="Q" unicode="Q" horiz-adv-x="1114" 
d="M123 254v977q0 115 70 184.5t184 69.5h483q114 0 184 -69.5t70 -184.5v-977q0 -114 -70 -184t-184 -70h-141v-63q0 -29 17.5 -46.5t45.5 -17.5h164l141 78v-375h-325q-116 0 -185 69t-69 185v170h-131q-114 0 -184 70t-70 184zM506 213h225q30 0 48 17t18 46v934
q0 28 -18.5 46t-47.5 18h-225q-29 0 -47.5 -18t-18.5 -46v-934q0 -29 18 -46t48 -17z" />
    <glyph glyph-name="R" unicode="R" horiz-adv-x="1128" 
d="M1069 150l64 -150h-445l64 150v425q0 29 -18 46.5t-46 17.5h-248v-489l64 -150h-447l64 150v1187l-64 148h758q115 0 184.5 -69.5t69.5 -184.5v-316q0 -56 -60.5 -99.5t-146.5 -47.5q95 -14 151 -65t56 -107v-446zM688 852q28 0 46 17t18 46v295q0 28 -18 46t-46 18h-248
v-422h248z" />
    <glyph glyph-name="S" unicode="S" horiz-adv-x="1052" 
d="M481 946l412 -145q71 -26 114.5 -89t43.5 -139v-319q0 -114 -69.5 -184t-184.5 -70h-418q-115 0 -185.5 70t-70.5 184v373l319 -107v-244q0 -29 17.5 -46t46.5 -17h164q28 0 45.5 17t17.5 46v179q0 29 -16.5 52t-42.5 32l-412 147q-72 25 -116 87.5t-44 139.5v318
q0 115 70 184.5t184 69.5h420q114 0 184 -69.5t70 -184.5v-379l-319 104v254q0 28 -17.5 46t-46.5 18h-162q-29 0 -47 -18t-18 -46v-178q0 -29 16.5 -53t44.5 -33z" />
    <glyph glyph-name="T" unicode="T" horiz-adv-x="960" 
d="M248 0l63 150v1124h-192l-139 -78v289h981v-289l-142 78h-190v-1124l63 -150h-444z" />
    <glyph glyph-name="U" unicode="U" horiz-adv-x="1126" 
d="M432 1337v-1061q0 -29 17.5 -46t46.5 -17h184q28 0 45.5 17t17.5 46v1061l-63 148h444l-63 -148v-1083q0 -114 -69.5 -184t-184.5 -70h-440q-114 0 -184 70t-70 184v1083l-64 148h447z" />
    <glyph glyph-name="V" unicode="V" horiz-adv-x="1198" 
d="M-37 1485h453l-33 -148l199 -1036l194 1036l-33 148h453l-94 -148l-289 -1337h-465l-289 1337z" />
    <glyph glyph-name="W" unicode="W" horiz-adv-x="1783" 
d="M-33 1485h453l-33 -148l156 -1036l184 1184h295l184 -1184l156 1036l-33 148h453l-96 -148l-246 -1337h-465l-98 700l-103 -700h-465l-246 1337z" />
    <glyph glyph-name="X" unicode="X" horiz-adv-x="1193" 
d="M711 0l-11 150l-118 344l-119 -344l-12 -150h-484l137 150l297 591l-299 596l-135 148h484l8 -148l123 -348l120 348l9 148h483l-135 -148l-299 -596l297 -591l137 -150h-483z" />
    <glyph glyph-name="Y" unicode="Y" horiz-adv-x="1212" 
d="M354 0l64 150v555l-340 632l-135 148h483l8 -148l144 -348l141 348l8 148h485l-137 -148l-338 -630v-557l64 -150h-447z" />
    <glyph glyph-name="Z" unicode="Z" horiz-adv-x="972" 
d="M29 0v106l532 1168h-379l-141 -78v289h920v-105l-531 -1167h401l140 78v-291h-942z" />
    <glyph glyph-name="bracketleft" unicode="[" horiz-adv-x="704" 
d="M664 1485v-211h-207v-1487h207v-211h-525v1909h525z" />
    <glyph glyph-name="backslash" unicode="\" horiz-adv-x="989" 
d="M987 0h-225l-541 1485h225z" />
    <glyph glyph-name="bracketright" unicode="]" horiz-adv-x="704" 
d="M221 1485h524v-1909h-524v211h207v1487h-207v211z" />
    <glyph glyph-name="asciicircum" unicode="^" horiz-adv-x="849" 
d="M621 799l-185 493l-184 -493h-227l256 686h311l256 -686h-227z" />
    <glyph glyph-name="underscore" unicode="_" horiz-adv-x="968" 
d="M967 -424h-828v211h828v-211z" />
    <glyph glyph-name="grave" unicode="`" horiz-adv-x="446" 
d="M305 1147l-276 338h297l106 -338h-127z" />
    <glyph glyph-name="a" unicode="a" 
d="M102 475q0 22 19 39.5t43 24.5l416 123v124q0 28 -17.5 46t-46.5 18h-53q-28 0 -46 -18t-18 -46v-116l-297 -66v203q0 114 70 184t184 70h267q115 0 184.5 -70t69.5 -184v-657l63 -150h-360v106l-45 -57q-17 -23 -45.5 -36t-57.5 -13h-76q-114 0 -184 70t-70 184v221z
M399 389v-113q0 -29 18 -46t46 -17h117v229z" />
    <glyph glyph-name="b" unicode="b" horiz-adv-x="915" 
d="M883 254q0 -114 -69.5 -184t-184.5 -70h-74q-30 0 -58.5 13t-45.5 36l-45 57v-106h-361l64 150v1187l-64 148h361v-424h223q115 0 184.5 -70t69.5 -184v-553zM586 276v510q0 28 -17.5 46t-46.5 18h-116v-637h116q29 0 46.5 17t17.5 46z" />
    <glyph glyph-name="c" unicode="c" horiz-adv-x="874" 
d="M106 254v553q0 114 70 184t184 70h267q115 0 184.5 -70t69.5 -184v-117l-297 -63v159q0 28 -17.5 46t-46.5 18h-53q-28 0 -46 -18t-18 -46v-510q0 -29 18 -46t46 -17h53q29 0 46.5 17t17.5 46v117l297 64v-203q0 -114 -69.5 -184t-184.5 -70h-267q-114 0 -184 70t-70 184
z" />
    <glyph glyph-name="d" unicode="d" horiz-adv-x="915" 
d="M106 254v553q0 114 70 184t184 70h224v276l-64 148h361v-1335l63 -150h-360v106l-45 -57q-17 -23 -45.5 -36t-57.5 -13h-76q-114 0 -184 70t-70 184zM403 276q0 -29 18 -46t46 -17h117v637h-117q-28 0 -46 -18t-18 -46v-510z" />
    <glyph glyph-name="e" unicode="e" horiz-adv-x="880" 
d="M106 254v553q0 114 70 184t184 70h267q115 0 184.5 -70t69.5 -184v-205q0 -28 -17 -50.5t-45 -29.5l-416 -123v-123q0 -29 18 -46t46 -17h53q29 0 46.5 17t17.5 46v117l297 64v-203q0 -114 -69.5 -184t-184.5 -70h-267q-114 0 -184 70t-70 184zM403 621l181 53v112
q0 28 -17.5 46t-46.5 18h-53q-28 0 -46 -18t-18 -46v-165z" />
    <glyph glyph-name="f" unicode="f" horiz-adv-x="571" 
d="M623 1485v-289q-36 44 -72 61t-59 17q-26 0 -44 -18t-18 -46v-149h160v-211h-160v-700l66 -150h-426l63 150v700h-76v211h76v170q0 115 70 184.5t186 69.5h234z" />
    <glyph glyph-name="g" unicode="g" horiz-adv-x="915" 
d="M584 -150v150h-224q-114 0 -184 70t-70 184v553q0 114 70 184t184 70h76q29 0 57.5 -13t45.5 -36l45 -58v107h360l-63 -148v-1083q0 -116 -69.5 -185t-184.5 -69h-480v291l140 -80h233q29 0 46.5 17.5t17.5 45.5zM467 213h117v637h-117q-28 0 -46 -18t-18 -46v-510
q0 -29 18 -46t46 -17z" />
    <glyph glyph-name="h" unicode="h" horiz-adv-x="946" 
d="M45 0l64 150v1187l-64 148h361v-424h223q115 0 184.5 -70t69.5 -184v-657l63 -150h-424l64 150v636q0 28 -17.5 46t-46.5 18h-116v-700l63 -150h-424z" />
    <glyph glyph-name="i" unicode="i" horiz-adv-x="473" 
d="M82 1327q0 74 52.5 127t127.5 53q74 0 127 -53.5t53 -126.5q0 -75 -53 -127.5t-127 -52.5q-75 0 -127.5 52.5t-52.5 127.5zM49 0l64 150v763l-64 148h361v-911l63 -150h-424z" />
    <glyph glyph-name="j" unicode="j" horiz-adv-x="446" 
d="M-49 1327q0 74 52.5 127t127.5 53t127.5 -53t52.5 -127q0 -75 -52.5 -127.5t-127.5 -52.5t-127.5 52.5t-52.5 127.5zM-209 -424v291q36 -44 72.5 -62t56.5 -18q28 0 45 17.5t17 45.5v1063l-64 148h361v-1231q0 -116 -69.5 -185t-184.5 -69h-234z" />
    <glyph glyph-name="k" unicode="k" horiz-adv-x="1089" 
d="M45 0l64 150v1187l-64 148h361v-809l188 237l47 148h463l-174 -148l-236 -278l283 -485l149 -150h-473l-20 150l-139 245l-88 -102v-143l63 -150h-424z" />
    <glyph glyph-name="l" unicode="l" horiz-adv-x="471" 
d="M45 0l64 150v1187l-64 148h361v-1335l63 -150h-424z" />
    <glyph glyph-name="m" unicode="m" horiz-adv-x="1423" 
d="M49 0l64 150v763l-64 148h361v-107l45 58q17 23 45.5 36t58.5 13h74q141 0 211 -103q33 38 81.5 70.5t88.5 32.5h94q115 0 185.5 -70t70.5 -184v-657l63 -150h-426l64 150v636q0 28 -17.5 46t-46.5 18h-114v-700l63 -150h-424l64 150v636q0 28 -17.5 46t-46.5 18h-116
v-700l63 -150h-424z" />
    <glyph glyph-name="n" unicode="n" horiz-adv-x="948" 
d="M49 0l64 150v763l-64 148h361v-107l45 58q17 23 45.5 36t58.5 13h74q115 0 184.5 -70t69.5 -184v-657l63 -150h-424l64 150v636q0 28 -17.5 46t-46.5 18h-116v-700l63 -150h-424z" />
    <glyph glyph-name="o" unicode="o" horiz-adv-x="882" 
d="M106 254v553q0 114 70 184t184 70h267q115 0 184.5 -70t69.5 -184v-553q0 -114 -69.5 -184t-184.5 -70h-267q-114 0 -184 70t-70 184zM467 213h53q29 0 46.5 17t17.5 46v510q0 28 -17.5 46t-46.5 18h-53q-28 0 -46 -18t-18 -46v-510q0 -29 18 -46t46 -17z" />
    <glyph glyph-name="p" unicode="p" horiz-adv-x="915" 
d="M883 807v-553q0 -114 -69.5 -184t-184.5 -70h-223v-276l63 -148h-424l64 148v1189l-64 148h361v-107l45 58q17 23 45.5 36t58.5 13h74q115 0 184.5 -70t69.5 -184zM586 786q0 28 -17.5 46t-46.5 18h-116v-637h116q29 0 46.5 17t17.5 46v510z" />
    <glyph glyph-name="q" unicode="q" horiz-adv-x="915" 
d="M106 807q0 114 70 184t184 70h76q29 0 57.5 -13t45.5 -36l45 -58v107h360l-63 -148v-1189l63 -148h-424l64 148v276h-224q-114 0 -184 70t-70 184v553zM403 786v-510q0 -29 18 -46t46 -17h117v637h-117q-28 0 -46 -18t-18 -46z" />
    <glyph glyph-name="r" unicode="r" horiz-adv-x="657" 
d="M49 0l64 150v763l-64 148h361v-107l45 58q17 23 45.5 36t58.5 13h117v-291q-66 80 -180 80h-86v-700l63 -150h-424z" />
    <glyph glyph-name="s" unicode="s" horiz-adv-x="870" 
d="M416 696l393 -143q28 -10 43.5 -33.5t15.5 -52.5v-213q0 -114 -69.5 -184t-184.5 -70h-254q-115 0 -185.5 70t-70.5 184v182l297 -86v-74q0 -29 18 -46t46 -17h43q29 0 46 17t17 46v58q0 24 -22 31l-395 145q-27 9 -43.5 32.5t-16.5 51.5v213q0 114 70 184t184 70h256
q114 0 184 -70t70 -184v-201l-297 105v75q0 28 -17 46t-46 18h-43q-28 0 -46 -18t-18 -46v-57q0 -26 25 -33z" />
    <glyph glyph-name="t" unicode="t" horiz-adv-x="614" 
d="M614 0h-233q-115 0 -185.5 70t-70.5 184v596h-76v211h76v205l297 84v-289h160v-211h-160v-574q0 -29 17 -46t44 -17q13 0 30 4.5t46.5 23.5t54.5 50v-291z" />
    <glyph glyph-name="u" unicode="u" horiz-adv-x="946" 
d="M879 1061v-911l63 -150h-360v106l-43 -57q-40 -49 -105 -49h-76q-114 0 -184 70t-70 184v659l-63 148h360v-785q0 -29 18 -46t46 -17h117v700l-64 148h361z" />
    <glyph glyph-name="v" unicode="v" horiz-adv-x="1030" 
d="M346 0l-278 913l-93 148h422l-14 -148l119 -610l119 610l-15 148h422l-92 -148l-279 -913h-311z" />
    <glyph glyph-name="w" unicode="w" horiz-adv-x="1406" 
d="M309 0l-237 913l-92 148h421l-14 -148l76 -610l98 758h262l99 -758l75 610l-14 148h422l-90 -148l-238 -913h-309l-76 502l-74 -502h-309z" />
    <glyph glyph-name="x" unicode="x" horiz-adv-x="1030" 
d="M580 0v150l-70 276l-72 -276v-150h-450l127 150l180 382l-178 381l-129 148h450l2 -148l70 -274l68 274l2 148h450l-129 -148l-176 -381l178 -382l127 -150h-450z" />
    <glyph glyph-name="y" unicode="y" horiz-adv-x="923" 
d="M401 276q0 -29 18 -46t46 -17h117v700l-64 148h361v-1231q0 -116 -69.5 -185t-184.5 -69h-480v291l140 -80h233q29 0 46.5 17.5t17.5 45.5v150h-224q-114 0 -184 70t-70 184v659l-63 148h360v-785z" />
    <glyph glyph-name="z" unicode="z" horiz-adv-x="827" 
d="M53 0v106l375 744h-221l-141 -80v291h749v-107l-375 -741h246l139 78v-291h-772z" />
    <glyph glyph-name="braceleft" unicode="{" horiz-adv-x="954" 
d="M430 786v445q0 115 69 184.5t185 69.5h270v-211h-143q-29 0 -46 -18t-17 -46v-424q0 -95 -47 -149.5t-144 -106.5q97 -52 144 -106t47 -148v-426q0 -28 17 -45.5t46 -17.5h143v-211h-270q-116 0 -185 69t-69 185v446q0 66 -41 107t-108 41h-60v213h60q67 0 108 40.5
t41 108.5z" />
    <glyph glyph-name="bar" unicode="|" horiz-adv-x="352" 
d="M352 -424h-213v1909h213v-1909z" />
    <glyph glyph-name="braceright" unicode="}" horiz-adv-x="954" 
d="M745 786q0 -67 41 -108t109 -41h59v-213h-59q-67 0 -108.5 -41t-41.5 -107v-446q0 -115 -69.5 -184.5t-183.5 -69.5h-271v211h141q29 0 47.5 17.5t18.5 45.5v426q0 50 13.5 88.5t42 68.5t58 51t76.5 46q-47 25 -76.5 46t-58 51t-42 69.5t-13.5 89.5v424q0 28 -18.5 46
t-47.5 18h-141v211h271q114 0 183.5 -69.5t69.5 -184.5v-445z" />
    <glyph glyph-name="asciitilde" unicode="~" horiz-adv-x="993" 
d="M219 463h-170q-8 142 56 227.5t188 85.5q64 0 150 -25t161 -50t113 -25q43 0 69 25.5t23 74.5h170q6 -313 -250 -313q-72 0 -154.5 25.5t-151.5 51t-108 25.5q-49 0 -72.5 -29.5t-23.5 -72.5z" />
    <glyph glyph-name="nbspace" unicode="&#xa0;" horiz-adv-x="458" 
 />
    <glyph glyph-name="exclamdown" unicode="&#xa1;" horiz-adv-x="397" 
d="M78 903q0 65 46.5 111.5t113.5 46.5q64 0 110.5 -46.5t46.5 -111.5q0 -66 -46 -113t-111 -47q-67 0 -113.5 47t-46.5 113zM184 633h107l104 -1057h-317z" />
    <glyph glyph-name="cent" unicode="&#xa2;" horiz-adv-x="878" 
d="M106 254v553q0 114 70 184t184 70h27v213h211v-213h29q115 0 184.5 -70t69.5 -184v-117l-297 -63v159q0 28 -17.5 46t-46.5 18h-53q-28 0 -46 -18t-18 -46v-510q0 -29 18 -46t46 -17h53q29 0 46.5 17t17.5 46v117l297 64v-203q0 -114 -69.5 -184t-184.5 -70h-29v-213
h-211v213h-27q-114 0 -184 70t-70 184z" />
    <glyph glyph-name="sterling" unicode="&#xa3;" horiz-adv-x="946" 
d="M111 0l63 150v487h-100v213h100v381q0 115 69 184.5t185 69.5h473v-289l-139 78h-207q-28 0 -45.5 -18t-17.5 -46v-360h325v-213h-325v-383h309l141 80v-334h-831z" />
    <glyph glyph-name="currency" unicode="&#xa4;" horiz-adv-x="1073" 
d="M195 692q0 100 38 178l-176 177l152 149l174 -174q83 39 182 39q100 0 183 -39l174 174l149 -149l-176 -177q39 -74 39 -178q0 -107 -43 -186l180 -180l-149 -150l-183 182q-75 -34 -174 -34t-174 34l-182 -182l-152 150l181 180q-43 84 -43 186zM408 692
q0 -70 43 -113.5t114 -43.5q69 0 112.5 43.5t43.5 113.5t-43.5 114t-112.5 44q-70 0 -113.5 -43.5t-43.5 -114.5z" />
    <glyph glyph-name="yen" unicode="&#xa5;" horiz-adv-x="1490" 
d="M633 0l63 150v141h-264v213h264v74h-264v213h219l-295 546l-135 148h484l8 -148l143 -348l141 348l9 148h485l-137 -148l-295 -546h221v-213h-264v-74h264v-213h-264v-141l63 -150h-446z" />
    <glyph glyph-name="brokenbar" unicode="&#xa6;" horiz-adv-x="344" 
d="M131 614v871h213v-871h-213zM131 -424v873h213v-873h-213z" />
    <glyph glyph-name="section" unicode="&#xa7;" horiz-adv-x="899" 
d="M133 287l297 -84v-76q0 -28 18 -46t46 -18h43q29 0 46 18t17 46v57q0 10 -6.5 20t-15.5 13l-396 143q-27 9 -43 32.5t-16 53.5v211q0 107 57 170q-26 9 -41.5 32.5t-15.5 53.5v211q0 115 70 185.5t184 70.5h256q114 0 184 -70.5t70 -185.5v-180l-297 86v74q0 29 -17.5 46
t-46.5 17h-43q-28 0 -45.5 -17t-17.5 -46v-57q0 -23 24 -33l394 -144q27 -9 43 -32.5t16 -51.5v-213q0 -104 -57 -170q26 -9 41.5 -32.5t15.5 -51.5v-213q0 -116 -69.5 -186t-184.5 -70h-254q-115 0 -185.5 70t-70.5 186v181zM444 547l93 -17q29 0 46 18t17 46v57
q0 11 -6.5 20.5t-15.5 12.5l-95 16q-28 0 -45.5 -17t-17.5 -46v-57q0 -23 24 -33z" />
    <glyph glyph-name="dieresis" unicode="&#xa8;" horiz-adv-x="657" 
d="M375 1286q0 58 40.5 98.5t100.5 40.5q57 0 98 -41t41 -98t-41 -98t-98 -41q-60 0 -100.5 40.5t-40.5 98.5zM61 1286q0 57 41 98t99 41t99.5 -41t41.5 -98t-41.5 -98t-99.5 -41t-99 41t-41 98z" />
    <glyph glyph-name="copyright" unicode="&#xa9;" horiz-adv-x="1361" 
d="M119 418v649q0 189 115 303.5t303 114.5h405q188 0 303 -114.5t115 -303.5v-649q0 -188 -115 -303t-303 -115h-405q-187 0 -302.5 115t-115.5 303zM539 86h401q152 0 244 91.5t92 242.5v645q0 152 -92 244t-244 92h-401q-151 0 -242.5 -92t-91.5 -244v-645
q0 -151 91.5 -242.5t242.5 -91.5zM451 422v641q0 76 45 122t120 46h291q74 0 119 -46t45 -122v-145l-207 -70v203q0 17 -12 29t-31 12h-121q-19 0 -31 -12t-12 -29v-615q0 -19 12 -30t31 -11h121q19 0 31 11t12 30v160l207 70v-244q0 -75 -45.5 -121.5t-118.5 -46.5h-291
q-75 0 -120 46.5t-45 121.5z" />
    <glyph glyph-name="ordfeminine" unicode="&#xaa;" horiz-adv-x="622" 
d="M94 1110q0 13 12.5 24.5t28.5 16.5l264 80v78q0 19 -11 30t-28 11h-34q-19 0 -30 -11t-11 -30v-74l-191 -43v131q0 72 45.5 117t118.5 45h170q72 0 118 -45t46 -117v-420l39 -96h-232v67l-26 -38q-9 -13 -28.5 -21t-39.5 -8h-47q-74 0 -119 44.5t-45 119.5v139zM285 1055
v-72q0 -41 41 -41h73v148z" />
    <glyph glyph-name="guillemotleft" unicode="&#xab;" horiz-adv-x="1153" 
d="M676 481l358 482h213l-260 -482l260 -479h-213zM221 481l359 482h213l-261 -482l261 -479h-213z" />
    <glyph glyph-name="logicalnot" unicode="&#xac;" horiz-adv-x="921" 
d="M57 850v211h850v-494h-213v283h-637z" />
    <glyph glyph-name="softhyphen" unicode="&#xad;" horiz-adv-x="0" 
 />
    <glyph glyph-name="registered" unicode="&#xae;" horiz-adv-x="1361" 
d="M119 418v649q0 189 115 303.5t303 114.5h405q188 0 303 -114.5t115 -303.5v-649q0 -188 -115 -303t-303 -115h-405q-187 0 -302.5 115t-115.5 303zM539 86h401q152 0 244 91.5t92 242.5v645q0 152 -92 244t-244 92h-401q-151 0 -242.5 -92t-91.5 -244v-645
q0 -151 91.5 -242.5t242.5 -91.5zM1063 358l43 -94h-289l41 94v277q0 18 -11.5 29.5t-29.5 11.5h-162v-318l41 -94h-288l43 94v768l-43 97h489q75 0 120.5 -45t45.5 -119v-205q0 -35 -39 -63t-94 -31q60 -10 96.5 -43t36.5 -70v-289zM817 813q18 0 29.5 11.5t11.5 29.5v190
q0 19 -12 31t-29 12h-162v-274h162z" />
    <glyph glyph-name="macron" unicode="&#xaf;" horiz-adv-x="761" 
d="M762 1147h-701v211h701v-211z" />
    <glyph glyph-name="degree" unicode="&#xb0;" horiz-adv-x="577" 
d="M74 1235q0 114 68.5 182t181.5 68q116 0 185 -68t69 -182t-69.5 -183t-184.5 -69q-113 0 -181.5 69t-68.5 183zM244 1235q0 -38 21.5 -60t58.5 -22q38 0 61 22t23 60q0 37 -23 59.5t-61 22.5q-37 0 -58.5 -22.5t-21.5 -59.5z" />
    <glyph glyph-name="plusminus" unicode="&#xb1;" horiz-adv-x="927" 
d="M78 580v213h317v317h213v-317h320v-213h-320v-318h-213v318h-317zM78 0v213h850v-213h-850z" />
    <glyph glyph-name="twosuperior" unicode="&#xb2;" horiz-adv-x="632" 
d="M420 1149q31 10 31 43v139q0 15 -10 25t-25 10h-90q-15 0 -26 -10t-11 -25v-106l-180 -62v178q0 66 39.5 105t105.5 39h233q65 0 104.5 -39t39.5 -105v-213q0 -43 -24.5 -78.5t-65.5 -50.5l-230 -79q-16 -6 -25.5 -20t-9.5 -30v-75h162v88l180 59v-293h-520v289
q0 43 25 78t65 49z" />
    <glyph glyph-name="threesuperior" unicode="&#xb3;" horiz-adv-x="636" 
d="M262 1008v120h139q37 0 37 37v166q0 15 -10 25t-27 10h-92q-17 0 -27 -10t-10 -25v-106l-178 -60v176q0 65 39 104.5t103 39.5h237q65 0 104 -39t39 -105v-176q0 -34 -26 -57.5t-74 -24.5q56 -10 86.5 -37.5t30.5 -60.5v-192q0 -64 -39 -104t-102 -40h-256
q-63 0 -102.5 40t-39.5 104v94l178 59v-141q0 -37 37 -37h111q15 0 25 10t10 27v168q0 17 -9.5 26t-25.5 9h-158z" />
    <glyph glyph-name="acute" unicode="&#xb4;" horiz-adv-x="446" 
d="M184 1147h-127l107 338h297z" />
    <glyph glyph-name="paragraph" unicode="&#xb6;" horiz-adv-x="1019" 
d="M651 -424v1049q-193 0 -311.5 118.5t-118.5 311.5q0 195 118 312.5t312 117.5h408v-1909h-148v1757h-110v-1757h-150z" />
    <glyph glyph-name="periodcentered" unicode="&#xb7;" horiz-adv-x="385" 
d="M225 582q-66 -3 -113.5 42t-50.5 111q-2 66 43 114.5t111 49.5q66 2 114.5 -43t49.5 -111q3 -66 -42.5 -113.5t-111.5 -49.5z" />
    <glyph glyph-name="cedilla" unicode="&#xb8;" horiz-adv-x="106" 
d="M-236 -137l101 137h90l-41 -82q133 -21 133 -147q0 -104 -85 -170.5t-249 -46.5v63q21 -6 39 -6q51 0 84 46.5t33 96.5q0 46 -30 77.5t-75 31.5z" />
    <glyph glyph-name="onesuperior" unicode="&#xb9;" horiz-adv-x="376" 
d="M119 649l33 84v617h-82v108l178 27h86v-752l35 -84h-250z" />
    <glyph glyph-name="ordmasculine" unicode="&#xba;" horiz-adv-x="591" 
d="M94 971v352q0 72 45.5 117t118.5 45h170q72 0 118 -45t46 -117v-352q0 -74 -45.5 -119t-118.5 -45h-170q-74 0 -119 44.5t-45 119.5zM326 942h34q39 0 39 41v326q0 19 -11 30t-28 11h-34q-19 0 -30 -11t-11 -30v-326q0 -41 41 -41z" />
    <glyph glyph-name="guillemotright" unicode="&#xbb;" horiz-adv-x="1153" 
d="M604 481l-358 -479h-213l258 479l-258 482h213zM1059 481l-361 -479h-211l258 479l-258 482h211z" />
    <glyph glyph-name="onequarter" unicode="&#xbc;" horiz-adv-x="1312" 
d="M94 649l33 84v617h-82v108l178 27h86v-752l35 -84h-250zM156 0l784 1485h182l-784 -1485h-182zM1030 0l37 86v104h-295v156l295 490h178v-490h66v-156h-66v-104l35 -86h-250zM913 346h154v256z" />
    <glyph glyph-name="onehalf" unicode="&#xbd;" horiz-adv-x="1400" 
d="M94 649l33 84v617h-82v108l178 27h86v-752l35 -84h-250zM156 0l784 1485h182l-784 -1485h-182zM1174 500q32 10 32 43v139q0 15 -10 25t-25 10h-90q-17 0 -27 -10t-10 -25v-107l-180 -61v178q0 65 40 104.5t106 39.5h233q64 0 103.5 -39.5t39.5 -104.5v-213
q0 -43 -25.5 -79.5t-66.5 -49.5l-227 -80q-35 -12 -35 -49v-76h162v88l180 60v-293h-520v289q0 43 24 78.5t64 48.5z" />
    <glyph glyph-name="threequarters" unicode="&#xbe;" horiz-adv-x="1484" 
d="M233 1008v120h140q37 0 37 37v166q0 15 -10 25t-27 10h-92q-17 0 -27 -10t-10 -25v-106l-178 -60v176q0 66 39 105t102 39h237q65 0 104.5 -39t39.5 -105v-176q0 -34 -26.5 -57.5t-74.5 -24.5q56 -10 86.5 -37.5t30.5 -60.5v-192q0 -64 -39 -104t-102 -40h-256
q-63 0 -102 40t-39 104v94l178 59v-141q0 -37 37 -37h110q15 0 25 10t10 27v168q0 17 -9.5 26t-25.5 9h-158zM338 0l784 1485h183l-785 -1485h-182zM1212 0l35 86v104h-293v156l293 490h178v-490h66v-156h-66v-104l37 -86h-250zM1096 346h151v256z" />
    <glyph glyph-name="questiondown" unicode="&#xbf;" horiz-adv-x="1148" 
d="M954 903q0 -66 -46.5 -113t-112.5 -47t-113 47t-47 113q0 65 47 111.5t113 46.5t112.5 -46.5t46.5 -111.5zM682 649h213v-225q0 -73 -26 -110.5t-97 -77.5l-172 -101q-61 -31 -61 -84v-201q0 -28 18 -45.5t47 -17.5h162q29 0 46 17.5t17 45.5v191l320 106v-317
q0 -115 -70 -184.5t-184 -69.5h-420q-114 0 -184 69.5t-70 184.5v256q0 132 160 225l242 148q59 36 59 84v106z" />
    <glyph glyph-name="Agrave" unicode="&#xc0;" horiz-adv-x="1193" 
d="M651 1571l-276 338h297l106 -338h-127zM-41 0l96 150l256 1187l-30 148h591l-32 -148l258 -1187l94 -150h-453l33 150l-39 196h-315l-39 -196l33 -150h-453zM459 559h237l-118 625z" />
    <glyph glyph-name="Aacute" unicode="&#xc1;" horiz-adv-x="1193" 
d="M502 1571h-127l106 338h297zM-41 0l96 150l256 1187l-30 148h591l-32 -148l258 -1187l94 -150h-453l33 150l-39 196h-315l-39 -196l33 -150h-453zM459 559h237l-118 625z" />
    <glyph glyph-name="Acircumflex" unicode="&#xc2;" horiz-adv-x="1193" 
d="M500 1909h153l277 -338h-299l-53 176l-56 -176h-297zM-41 0l96 150l256 1187l-30 148h591l-32 -148l258 -1187l94 -150h-453l33 150l-39 196h-315l-39 -196l33 -150h-453zM459 559h237l-118 625z" />
    <glyph glyph-name="Atilde" unicode="&#xc3;" horiz-adv-x="1193" 
d="M397 1571h-170q-8 140 50 226.5t159 86.5q52 0 108 -25.5t98.5 -51t62.5 -25.5q52 0 49 102h170q13 -155 -40 -234t-157 -79q-46 0 -89.5 15.5t-70 34.5t-54.5 34.5t-48 15.5q-31 0 -49.5 -30t-18.5 -70zM-41 0l96 150l256 1187l-30 148h591l-32 -148l258 -1187l94 -150
h-453l33 150l-39 196h-315l-39 -196l33 -150h-453zM459 559h237l-118 625z" />
    <glyph glyph-name="Adieresis" unicode="&#xc4;" horiz-adv-x="1193" 
d="M594 1710q0 57 40.5 98t98.5 41t99.5 -41t41.5 -98t-41.5 -98t-99.5 -41t-98.5 41t-40.5 98zM279 1710q0 57 41.5 98t99.5 41q57 0 98 -41t41 -98t-41 -98t-98 -41q-58 0 -99.5 41t-41.5 98zM-41 0l96 150l256 1187l-30 148h591l-32 -148l258 -1187l94 -150h-453l33 150
l-39 196h-315l-39 -196l33 -150h-453zM459 559h237l-118 625z" />
    <glyph glyph-name="Aring" unicode="&#xc5;" horiz-adv-x="1193" 
d="M360 1786q0 96 60.5 155.5t157.5 59.5q96 0 155.5 -59.5t59.5 -155.5t-59.5 -155.5t-155.5 -59.5q-97 0 -157.5 59.5t-60.5 155.5zM489 1786q0 -40 24.5 -64t64.5 -24q39 0 63.5 24.5t24.5 63.5q0 38 -25 63t-63 25q-40 0 -64.5 -25t-24.5 -63zM-41 0l96 150l256 1187
l-30 148h591l-32 -148l258 -1187l94 -150h-453l33 150l-39 196h-315l-39 -196l33 -150h-453zM459 559h237l-118 625z" />
    <glyph glyph-name="AE" unicode="&#xc6;" horiz-adv-x="1615" 
d="M711 0l63 150v196h-313l-76 -196l6 -150h-452l120 150l488 1187l-6 148h1001v-289l-139 78h-309v-424h247l150 63v-340l-150 64h-247v-424h309l139 78v-291h-831zM545 559h229v586z" />
    <glyph glyph-name="Ccedilla" unicode="&#xc7;" horiz-adv-x="1060" 
d="M123 254v977q0 115 70 184.5t184 69.5h440q115 0 184.5 -69.5t69.5 -184.5v-223l-317 -105v307q0 28 -18 46t-46 18h-184q-29 0 -47.5 -18t-18.5 -46v-934q0 -29 18 -46t48 -17h184q28 0 46 17t18 46v244l317 107v-373q0 -114 -69.5 -184t-184.5 -70h-149l-41 -82
q131 -21 131 -147q0 -104 -84 -170.5t-248 -46.5v63q21 -6 37 -6q51 0 84 46.5t33 96.5q0 46 -29 77.5t-74 31.5l98 137h-198q-114 0 -184 70t-70 184z" />
    <glyph glyph-name="Egrave" unicode="&#xc8;" horiz-adv-x="903" 
d="M555 1571l-276 338h296l107 -338h-127zM57 0l64 150v1187l-64 148h832v-289l-139 78h-310v-424h248l148 63v-340l-148 64h-248v-424h310l139 78v-291h-832z" />
    <glyph glyph-name="Eacute" unicode="&#xc9;" horiz-adv-x="903" 
d="M406 1571h-127l106 338h297zM57 0l64 150v1187l-64 148h832v-289l-139 78h-310v-424h248l148 63v-340l-148 64h-248v-424h310l139 78v-291h-832z" />
    <glyph glyph-name="Ecircumflex" unicode="&#xca;" horiz-adv-x="903" 
d="M403 1909h154l277 -338h-299l-54 176l-55 -176h-297zM57 0l64 150v1187l-64 148h832v-289l-139 78h-310v-424h248l148 63v-340l-148 64h-248v-424h310l139 78v-291h-832z" />
    <glyph glyph-name="Edieresis" unicode="&#xcb;" horiz-adv-x="903" 
d="M498 1710q0 57 40.5 98t98.5 41t99.5 -41t41.5 -98t-41.5 -98t-99.5 -41t-98.5 41t-40.5 98zM182 1710q0 57 42 98t100 41q57 0 98 -41t41 -98t-41 -98t-98 -41q-58 0 -100 41t-42 98zM57 0l64 150v1187l-64 148h832v-289l-139 78h-310v-424h248l148 63v-340l-148 64
h-248v-424h310l139 78v-291h-832z" />
    <glyph glyph-name="Igrave" unicode="&#xcc;" horiz-adv-x="503" 
d="M354 1571l-274 338h297l104 -338h-127zM57 0l64 150v1187l-64 148h447l-64 -148v-1187l64 -150h-447z" />
    <glyph glyph-name="Iacute" unicode="&#xcd;" horiz-adv-x="503" 
d="M207 1571h-127l104 338h297zM57 0l64 150v1187l-64 148h447l-64 -148v-1187l64 -150h-447z" />
    <glyph glyph-name="Icircumflex" unicode="&#xce;" horiz-adv-x="503" 
d="M76 1909h151l277 -338h-297l-55 176l-56 -176h-297zM-72 0l64 150v1187l-64 148h447l-64 -148v-1187l64 -150h-447z" />
    <glyph glyph-name="Idieresis" unicode="&#xcf;" horiz-adv-x="503" 
d="M223 1710q0 57 41 98t101 41q57 0 98 -41t41 -98t-41 -98t-98 -41q-60 0 -101 41t-41 98zM-90 1710q0 57 40.5 98t98.5 41t99.5 -41t41.5 -98t-41.5 -98t-99.5 -41t-98.5 41t-40.5 98zM-16 0l63 150v1187l-63 148h446l-63 -148v-1187l63 -150h-446z" />
    <glyph glyph-name="Eth" unicode="&#xd0;" horiz-adv-x="1148" 
d="M94 0l64 150v501h-117v213h117v473l-64 148h758q116 0 185 -69.5t69 -184.5v-977q0 -114 -69.5 -184t-184.5 -70h-758zM475 213h250q28 0 45.5 17t17.5 46v934q0 28 -17.5 46t-45.5 18h-250v-410h150v-213h-150v-438z" />
    <glyph glyph-name="Ntilde" unicode="&#xd1;" horiz-adv-x="1165" 
d="M432 1571h-170q-8 140 50 226.5t159 86.5q52 0 107.5 -25.5t98 -51t62.5 -25.5q52 0 49 102h170q13 -156 -39.5 -234.5t-156.5 -78.5q-46 0 -89.5 15.5t-70 34.5t-54.5 34.5t-48 15.5q-31 0 -49.5 -30t-18.5 -70zM57 0l64 150v1187l-64 148h422l305 -887v739l-63 148h446
l-63 -148v-1337h-383l-281 819v-669l64 -150h-447z" />
    <glyph glyph-name="Ograve" unicode="&#xd2;" horiz-adv-x="1114" 
d="M692 1571l-274 338h297l104 -338h-127zM123 254v977q0 115 70 184.5t184 69.5h483q114 0 184 -69.5t70 -184.5v-977q0 -114 -70 -184t-184 -70h-483q-114 0 -184 70t-70 184zM506 213h225q30 0 48 17t18 46v934q0 28 -18.5 46t-47.5 18h-225q-29 0 -47.5 -18t-18.5 -46
v-934q0 -29 18 -46t48 -17z" />
    <glyph glyph-name="Oacute" unicode="&#xd3;" horiz-adv-x="1114" 
d="M545 1571h-127l104 338h297zM123 254v977q0 115 70 184.5t184 69.5h483q114 0 184 -69.5t70 -184.5v-977q0 -114 -70 -184t-184 -70h-483q-114 0 -184 70t-70 184zM506 213h225q30 0 48 17t18 46v934q0 28 -18.5 46t-47.5 18h-225q-29 0 -47.5 -18t-18.5 -46v-934
q0 -29 18 -46t48 -17z" />
    <glyph glyph-name="Ocircumflex" unicode="&#xd4;" horiz-adv-x="1114" 
d="M543 1909h151l277 -338h-297l-56 176l-55 -176h-297zM123 254v977q0 115 70 184.5t184 69.5h483q114 0 184 -69.5t70 -184.5v-977q0 -114 -70 -184t-184 -70h-483q-114 0 -184 70t-70 184zM506 213h225q30 0 48 17t18 46v934q0 28 -18.5 46t-47.5 18h-225
q-29 0 -47.5 -18t-18.5 -46v-934q0 -29 18 -46t48 -17z" />
    <glyph glyph-name="Otilde" unicode="&#xd5;" horiz-adv-x="1114" 
d="M440 1571h-170q-9 139 49 226t158 87q52 0 108.5 -25.5t99.5 -51t63 -25.5q24 0 37 26t12 76h170q13 -155 -40.5 -234t-158.5 -79q-46 0 -89 15.5t-69 34.5t-54 34.5t-48 15.5q-31 0 -49.5 -30t-18.5 -70zM123 254v977q0 115 70 184.5t184 69.5h483q114 0 184 -69.5
t70 -184.5v-977q0 -114 -70 -184t-184 -70h-483q-114 0 -184 70t-70 184zM506 213h225q30 0 48 17t18 46v934q0 28 -18.5 46t-47.5 18h-225q-29 0 -47.5 -18t-18.5 -46v-934q0 -29 18 -46t48 -17z" />
    <glyph glyph-name="Odieresis" unicode="&#xd6;" horiz-adv-x="1114" 
d="M635 1710q0 58 40.5 98.5t100.5 40.5q57 0 98 -41t41 -98t-41 -98t-98 -41q-60 0 -100.5 40.5t-40.5 98.5zM322 1710q0 57 40.5 98t98.5 41t99.5 -41t41.5 -98t-41.5 -98t-99.5 -41t-98.5 41t-40.5 98zM123 254v977q0 115 70 184.5t184 69.5h483q114 0 184 -69.5
t70 -184.5v-977q0 -114 -70 -184t-184 -70h-483q-114 0 -184 70t-70 184zM506 213h225q30 0 48 17t18 46v934q0 28 -18.5 46t-47.5 18h-225q-29 0 -47.5 -18t-18.5 -46v-934q0 -29 18 -46t48 -17z" />
    <glyph glyph-name="multiply" unicode="&#xd7;" horiz-adv-x="817" 
d="M66 911l151 150l223 -225l226 225l151 -150l-225 -225l225 -225l-151 -152l-226 226l-223 -226l-151 152l225 225z" />
    <glyph glyph-name="Oslash" unicode="&#xd8;" horiz-adv-x="1114" 
d="M123 254v977q0 115 70 184.5t184 69.5h483q114 0 184 -69.5t70 -184.5v-977q0 -114 -70 -184t-184 -70h-483q-114 0 -184 70t-70 184zM440 408l224 866h-158q-29 0 -47.5 -18t-18.5 -46v-802zM573 213h158q30 0 48 17t18 46v799z" />
    <glyph glyph-name="Ugrave" unicode="&#xd9;" horiz-adv-x="1126" 
d="M662 1571l-275 338h297l104 -338h-126zM432 1337v-1061q0 -29 17.5 -46t46.5 -17h184q28 0 45.5 17t17.5 46v1061l-63 148h444l-63 -148v-1083q0 -114 -69.5 -184t-184.5 -70h-440q-114 0 -184 70t-70 184v1083l-64 148h447z" />
    <glyph glyph-name="Uacute" unicode="&#xda;" horiz-adv-x="1126" 
d="M514 1571h-127l105 338h296zM432 1337v-1061q0 -29 17.5 -46t46.5 -17h184q28 0 45.5 17t17.5 46v1061l-63 148h444l-63 -148v-1083q0 -114 -69.5 -184t-184.5 -70h-440q-114 0 -184 70t-70 184v1083l-64 148h447z" />
    <glyph glyph-name="Ucircumflex" unicode="&#xdb;" horiz-adv-x="1126" 
d="M512 1909h152l276 -338h-297l-55 176l-56 -176h-296zM432 1337v-1061q0 -29 17.5 -46t46.5 -17h184q28 0 45.5 17t17.5 46v1061l-63 148h444l-63 -148v-1083q0 -114 -69.5 -184t-184.5 -70h-440q-114 0 -184 70t-70 184v1083l-64 148h447z" />
    <glyph glyph-name="Udieresis" unicode="&#xdc;" horiz-adv-x="1126" 
d="M604 1710q0 58 41 98.5t100 40.5q57 0 98.5 -41t41.5 -98t-41.5 -98t-98.5 -41q-59 0 -100 40.5t-41 98.5zM291 1710q0 57 40.5 98t98.5 41t99.5 -41t41.5 -98t-41.5 -98t-99.5 -41t-98.5 41t-40.5 98zM432 1337v-1061q0 -29 17.5 -46t46.5 -17h184q28 0 45.5 17t17.5 46
v1061l-63 148h444l-63 -148v-1083q0 -114 -69.5 -184t-184.5 -70h-440q-114 0 -184 70t-70 184v1083l-64 148h447z" />
    <glyph glyph-name="Yacute" unicode="&#xdd;" horiz-adv-x="1212" 
d="M504 1571h-127l104 338h297zM354 0l64 150v555l-340 632l-135 148h483l8 -148l144 -348l141 348l8 148h485l-137 -148l-338 -630v-557l64 -150h-447z" />
    <glyph glyph-name="Thorn" unicode="&#xde;" horiz-adv-x="1069" 
d="M121 1337l-64 148h447l-64 -148v-137h375q115 0 184.5 -70t69.5 -186v-401q0 -114 -69.5 -184t-184.5 -70h-375v-139l64 -150h-447l64 150v1187zM440 502h248q28 0 46 17t18 46v359q0 29 -18 46t-46 17h-248v-485z" />
    <glyph glyph-name="germandbls" unicode="&#xdf;" horiz-adv-x="1112" 
d="M362 1485h441q115 0 184.5 -69.5t69.5 -184.5v-316q0 -58 -46.5 -100.5t-129.5 -46.5q96 -14 152.5 -65t56.5 -107v-342q0 -114 -70 -184t-184 -70h-306v213h177q29 0 46 17t17 46v299q0 29 -17 46.5t-46 17.5h-177v213h146q28 0 45.5 17t17.5 46v295q0 28 -17.5 46
t-45.5 18h-184q-29 0 -46.5 -18t-17.5 -46v-1210h-383l64 150v1081q0 115 69.5 184.5t183.5 69.5z" />
    <glyph glyph-name="agrave" unicode="&#xe0;" 
d="M582 1147l-277 338h297l107 -338h-127zM102 475q0 22 19 39.5t43 24.5l416 123v124q0 28 -17.5 46t-46.5 18h-53q-28 0 -46 -18t-18 -46v-116l-297 -66v203q0 114 70 184t184 70h267q115 0 184.5 -70t69.5 -184v-657l63 -150h-360v106l-45 -57q-17 -23 -45.5 -36
t-57.5 -13h-76q-114 0 -184 70t-70 184v221zM399 389v-113q0 -29 18 -46t46 -17h117v229z" />
    <glyph glyph-name="aacute" unicode="&#xe1;" 
d="M432 1147h-127l107 338h297zM102 475q0 22 19 39.5t43 24.5l416 123v124q0 28 -17.5 46t-46.5 18h-53q-28 0 -46 -18t-18 -46v-116l-297 -66v203q0 114 70 184t184 70h267q115 0 184.5 -70t69.5 -184v-657l63 -150h-360v106l-45 -57q-17 -23 -45.5 -36t-57.5 -13h-76
q-114 0 -184 70t-70 184v221zM399 389v-113q0 -29 18 -46t46 -17h117v229z" />
    <glyph glyph-name="acircumflex" unicode="&#xe2;" 
d="M430 1485h154l276 -338h-299l-53 176l-55 -176h-297zM102 475q0 22 19 39.5t43 24.5l416 123v124q0 28 -17.5 46t-46.5 18h-53q-28 0 -46 -18t-18 -46v-116l-297 -66v203q0 114 70 184t184 70h267q115 0 184.5 -70t69.5 -184v-657l63 -150h-360v106l-45 -57
q-17 -23 -45.5 -36t-57.5 -13h-76q-114 0 -184 70t-70 184v221zM399 389v-113q0 -29 18 -46t46 -17h117v229z" />
    <glyph glyph-name="atilde" unicode="&#xe3;" 
d="M328 1147h-170q-8 140 50 226.5t159 86.5q52 0 107.5 -25.5t98 -51t62.5 -25.5q52 0 49 102h170q13 -155 -40 -234t-157 -79q-46 0 -89.5 15.5t-70 34.5t-54.5 34.5t-48 15.5q-31 0 -49 -29.5t-18 -70.5zM102 475q0 22 19 39.5t43 24.5l416 123v124q0 28 -17.5 46
t-46.5 18h-53q-28 0 -46 -18t-18 -46v-116l-297 -66v203q0 114 70 184t184 70h267q115 0 184.5 -70t69.5 -184v-657l63 -150h-360v106l-45 -57q-17 -23 -45.5 -36t-57.5 -13h-76q-114 0 -184 70t-70 184v221zM399 389v-113q0 -29 18 -46t46 -17h117v229z" />
    <glyph glyph-name="adieresis" unicode="&#xe4;" 
d="M524 1286q0 57 41 98t99 41t99.5 -41t41.5 -98t-41.5 -98t-99.5 -41t-99 41t-41 98zM209 1286q0 57 41.5 98t99.5 41q57 0 98 -41t41 -98t-41 -98t-98 -41q-58 0 -99.5 41t-41.5 98zM102 475q0 22 19 39.5t43 24.5l416 123v124q0 28 -17.5 46t-46.5 18h-53q-28 0 -46 -18
t-18 -46v-116l-297 -66v203q0 114 70 184t184 70h267q115 0 184.5 -70t69.5 -184v-657l63 -150h-360v106l-45 -57q-17 -23 -45.5 -36t-57.5 -13h-76q-114 0 -184 70t-70 184v221zM399 389v-113q0 -29 18 -46t46 -17h117v229z" />
    <glyph glyph-name="aring" unicode="&#xe5;" 
d="M291 1362q0 97 60 156t157 59q96 0 155.5 -59.5t59.5 -155.5t-59.5 -155.5t-155.5 -59.5q-97 0 -157 59t-60 156zM420 1362q0 -40 24 -64t64 -24q39 0 63.5 24.5t24.5 63.5q0 38 -25 63t-63 25q-39 0 -63.5 -24.5t-24.5 -63.5zM102 475q0 22 19 39.5t43 24.5l416 123v124
q0 28 -17.5 46t-46.5 18h-53q-28 0 -46 -18t-18 -46v-116l-297 -66v203q0 114 70 184t184 70h267q115 0 184.5 -70t69.5 -184v-657l63 -150h-360v106l-45 -57q-17 -23 -45.5 -36t-57.5 -13h-76q-114 0 -184 70t-70 184v221zM399 389v-113q0 -29 18 -46t46 -17h117v229z" />
    <glyph glyph-name="ae" unicode="&#xe6;" horiz-adv-x="1355" 
d="M102 475q0 22 19 39.5t43 24.5l416 123v124q0 28 -17.5 46t-46.5 18h-53q-28 0 -46 -18t-18 -46v-116l-297 -66v203q0 114 70 184t184 70h267q54 0 106 -19q49 19 107 19h264q115 0 184.5 -70t69.5 -184v-205q0 -28 -17 -50.5t-45 -29.5l-415 -123v-123q0 -29 17.5 -46
t45.5 -17h53q29 0 46.5 17t17.5 46v117l297 64v-203q0 -114 -69.5 -184t-184.5 -70h-264q-111 0 -177 63q-5 -11 -13.5 -20.5t-21 -16t-22.5 -11t-28 -7.5t-28 -5t-31 -2.5t-28.5 -0.5h-29.5h-25h-76q-114 0 -184 70t-70 184v221zM877 621l180 53v112q0 28 -17.5 46
t-46.5 18h-53q-28 0 -45.5 -18t-17.5 -46v-165zM399 389v-113q0 -29 18 -46t46 -17h117v229z" />
    <glyph glyph-name="ccedilla" unicode="&#xe7;" horiz-adv-x="874" 
d="M106 254v553q0 114 70 184t184 70h267q115 0 184.5 -70t69.5 -184v-117l-297 -63v159q0 28 -17.5 46t-46.5 18h-53q-28 0 -46 -18t-18 -46v-510q0 -29 18 -46t46 -17h53q29 0 46.5 17t17.5 46v117l297 64v-203q0 -114 -69.5 -184t-184.5 -70h-62l-39 -82
q131 -21 131 -147q0 -104 -84.5 -170.5t-248.5 -46.5v63q21 -6 38 -6q51 0 84 46.5t33 96.5q0 46 -29.5 77.5t-74.5 31.5l100 137h-115q-114 0 -184 70t-70 184z" />
    <glyph glyph-name="egrave" unicode="&#xe8;" horiz-adv-x="880" 
d="M567 1147l-274 338h297l104 -338h-127zM106 254v553q0 114 70 184t184 70h267q115 0 184.5 -70t69.5 -184v-205q0 -28 -17 -50.5t-45 -29.5l-416 -123v-123q0 -29 18 -46t46 -17h53q29 0 46.5 17t17.5 46v117l297 64v-203q0 -114 -69.5 -184t-184.5 -70h-267
q-114 0 -184 70t-70 184zM403 621l181 53v112q0 28 -17.5 46t-46.5 18h-53q-28 0 -46 -18t-18 -46v-165z" />
    <glyph glyph-name="eacute" unicode="&#xe9;" horiz-adv-x="880" 
d="M420 1147h-127l104 338h297zM106 254v553q0 114 70 184t184 70h267q115 0 184.5 -70t69.5 -184v-205q0 -28 -17 -50.5t-45 -29.5l-416 -123v-123q0 -29 18 -46t46 -17h53q29 0 46.5 17t17.5 46v117l297 64v-203q0 -114 -69.5 -184t-184.5 -70h-267q-114 0 -184 70
t-70 184zM403 621l181 53v112q0 28 -17.5 46t-46.5 18h-53q-28 0 -46 -18t-18 -46v-165z" />
    <glyph glyph-name="ecircumflex" unicode="&#xea;" horiz-adv-x="880" 
d="M418 1485h151l277 -338h-297l-55 176l-56 -176h-297zM106 254v553q0 114 70 184t184 70h267q115 0 184.5 -70t69.5 -184v-205q0 -28 -17 -50.5t-45 -29.5l-416 -123v-123q0 -29 18 -46t46 -17h53q29 0 46.5 17t17.5 46v117l297 64v-203q0 -114 -69.5 -184t-184.5 -70
h-267q-114 0 -184 70t-70 184zM403 621l181 53v112q0 28 -17.5 46t-46.5 18h-53q-28 0 -46 -18t-18 -46v-165z" />
    <glyph glyph-name="edieresis" unicode="&#xeb;" horiz-adv-x="880" 
d="M510 1286q0 58 41 98.5t100 40.5q57 0 98.5 -41t41.5 -98t-41.5 -98t-98.5 -41q-59 0 -100 40.5t-41 98.5zM197 1286q0 57 40.5 98t98.5 41t99.5 -41t41.5 -98t-41.5 -98t-99.5 -41t-98.5 41t-40.5 98zM106 254v553q0 114 70 184t184 70h267q115 0 184.5 -70t69.5 -184
v-205q0 -28 -17 -50.5t-45 -29.5l-416 -123v-123q0 -29 18 -46t46 -17h53q29 0 46.5 17t17.5 46v117l297 64v-203q0 -114 -69.5 -184t-184.5 -70h-267q-114 0 -184 70t-70 184zM403 621l181 53v112q0 28 -17.5 46t-46.5 18h-53q-28 0 -46 -18t-18 -46v-165z" />
    <glyph glyph-name="igrave" unicode="&#xec;" horiz-adv-x="473" 
d="M336 1147l-277 338h297l107 -338h-127zM49 0l64 150v763l-64 148h361v-911l63 -150h-424z" />
    <glyph glyph-name="iacute" unicode="&#xed;" horiz-adv-x="473" 
d="M186 1147h-127l107 338h297zM49 0l64 150v763l-64 148h361v-911l63 -150h-424z" />
    <glyph glyph-name="icircumflex" unicode="&#xee;" horiz-adv-x="473" 
d="M43 1485h154l276 -338h-299l-53 176l-55 -176h-299zM-92 0l63 150v763l-63 148h360v-911l64 -150h-424z" />
    <glyph glyph-name="idieresis" unicode="&#xef;" horiz-adv-x="473" 
d="M193 1286q0 57 40.5 98t98.5 41t99.5 -41t41.5 -98t-41.5 -98t-99.5 -41t-98.5 41t-40.5 98zM-123 1286q0 57 41.5 98t99.5 41q57 0 98.5 -41t41.5 -98t-41.5 -98t-98.5 -41q-58 0 -99.5 41t-41.5 98zM-37 0l64 150v763l-64 148h361v-911l63 -150h-424z" />
    <glyph glyph-name="eth" unicode="&#xf0;" horiz-adv-x="1048" 
d="M1006 254q0 -114 -70.5 -184t-185.5 -70h-398q-114 0 -184 70t-70 184v401q0 115 70 185.5t184 70.5h334v88h-125v170h125v41q0 28 -17 46t-46 18h-121q-29 0 -46.5 -18t-17.5 -46v-125l-319 -106v252q0 115 70 184.5t186 69.5h375q116 0 186 -69.5t70 -184.5v-62h73
v-170h-73v-745zM623 213q29 0 46 17t17 46v422h-205q-29 0 -47 -17t-18 -46v-359q0 -29 18 -46t47 -17h142z" />
    <glyph glyph-name="ntilde" unicode="&#xf1;" horiz-adv-x="948" 
d="M319 1147h-169q-8 140 49.5 226.5t158.5 86.5q52 0 108 -25.5t98.5 -51t62.5 -25.5q52 0 49 102h170q13 -155 -40 -234t-157 -79q-46 0 -89.5 15.5t-70 34.5t-54.5 34.5t-48 15.5q-31 0 -49.5 -30t-18.5 -70zM49 0l64 150v763l-64 148h361v-107l45 58q17 23 45.5 36
t58.5 13h74q115 0 184.5 -70t69.5 -184v-657l63 -150h-424l64 150v636q0 28 -17.5 46t-46.5 18h-116v-700l63 -150h-424z" />
    <glyph glyph-name="ograve" unicode="&#xf2;" horiz-adv-x="882" 
d="M569 1147l-276 338h297l106 -338h-127zM106 254v553q0 114 70 184t184 70h267q115 0 184.5 -70t69.5 -184v-553q0 -114 -69.5 -184t-184.5 -70h-267q-114 0 -184 70t-70 184zM467 213h53q29 0 46.5 17t17.5 46v510q0 28 -17.5 46t-46.5 18h-53q-28 0 -46 -18t-18 -46
v-510q0 -29 18 -46t46 -17z" />
    <glyph glyph-name="oacute" unicode="&#xf3;" horiz-adv-x="882" 
d="M420 1147h-127l106 338h297zM106 254v553q0 114 70 184t184 70h267q115 0 184.5 -70t69.5 -184v-553q0 -114 -69.5 -184t-184.5 -70h-267q-114 0 -184 70t-70 184zM467 213h53q29 0 46.5 17t17.5 46v510q0 28 -17.5 46t-46.5 18h-53q-28 0 -46 -18t-18 -46v-510
q0 -29 18 -46t46 -17z" />
    <glyph glyph-name="ocircumflex" unicode="&#xf4;" horiz-adv-x="882" 
d="M418 1485h153l277 -338h-299l-53 176l-56 -176h-297zM106 254v553q0 114 70 184t184 70h267q115 0 184.5 -70t69.5 -184v-553q0 -114 -69.5 -184t-184.5 -70h-267q-114 0 -184 70t-70 184zM467 213h53q29 0 46.5 17t17.5 46v510q0 28 -17.5 46t-46.5 18h-53
q-28 0 -46 -18t-18 -46v-510q0 -29 18 -46t46 -17z" />
    <glyph glyph-name="otilde" unicode="&#xf5;" horiz-adv-x="882" 
d="M315 1147h-170q-8 140 50 226.5t159 86.5q52 0 108 -25.5t98.5 -51t62.5 -25.5q52 0 49 102h170q13 -155 -40 -234t-157 -79q-46 0 -89.5 15.5t-70 34.5t-54.5 34.5t-48 15.5q-31 0 -49.5 -30t-18.5 -70zM106 254v553q0 114 70 184t184 70h267q115 0 184.5 -70t69.5 -184
v-553q0 -114 -69.5 -184t-184.5 -70h-267q-114 0 -184 70t-70 184zM467 213h53q29 0 46.5 17t17.5 46v510q0 28 -17.5 46t-46.5 18h-53q-28 0 -46 -18t-18 -46v-510q0 -29 18 -46t46 -17z" />
    <glyph glyph-name="odieresis" unicode="&#xf6;" horiz-adv-x="882" 
d="M512 1286q0 57 40.5 98t98.5 41t100 -41t42 -98t-42 -98t-100 -41t-98.5 41t-40.5 98zM197 1286q0 57 41.5 98t99.5 41q57 0 98 -41t41 -98t-41 -98t-98 -41q-58 0 -99.5 41t-41.5 98zM106 254v553q0 114 70 184t184 70h267q115 0 184.5 -70t69.5 -184v-553
q0 -114 -69.5 -184t-184.5 -70h-267q-114 0 -184 70t-70 184zM467 213h53q29 0 46.5 17t17.5 46v510q0 28 -17.5 46t-46.5 18h-53q-28 0 -46 -18t-18 -46v-510q0 -29 18 -46t46 -17z" />
    <glyph glyph-name="divide" unicode="&#xf7;" horiz-adv-x="1071" 
d="M487 1051q0 66 46 112.5t112 46.5t113 -46.5t47 -112.5q0 -65 -47 -112.5t-113 -47.5q-65 0 -111.5 47.5t-46.5 112.5zM221 580v213h850v-213h-850zM487 307q0 66 46 113t112 47t113 -47t47 -113q0 -65 -47 -111t-113 -46t-112 46t-46 111z" />
    <glyph glyph-name="oslash" unicode="&#xf8;" horiz-adv-x="882" 
d="M106 254v553q0 114 70 184t184 70h267q115 0 184.5 -70t69.5 -184v-553q0 -114 -69.5 -184t-184.5 -70h-267q-114 0 -184 70t-70 184zM403 522l142 324q-16 4 -25 4h-53q-28 0 -46 -18t-18 -46v-264zM467 213h53q29 0 46.5 17t17.5 46v388l-178 -408q10 -43 61 -43z" />
    <glyph glyph-name="ugrave" unicode="&#xf9;" horiz-adv-x="946" 
d="M567 1147l-274 338h297l104 -338h-127zM879 1061v-911l63 -150h-360v106l-43 -57q-40 -49 -105 -49h-76q-114 0 -184 70t-70 184v659l-63 148h360v-785q0 -29 18 -46t46 -17h117v700l-64 148h361z" />
    <glyph glyph-name="uacute" unicode="&#xfa;" horiz-adv-x="946" 
d="M420 1147h-127l104 338h297zM879 1061v-911l63 -150h-360v106l-43 -57q-40 -49 -105 -49h-76q-114 0 -184 70t-70 184v659l-63 148h360v-785q0 -29 18 -46t46 -17h117v700l-64 148h361z" />
    <glyph glyph-name="ucircumflex" unicode="&#xfb;" horiz-adv-x="946" 
d="M418 1485h151l277 -338h-297l-55 176l-56 -176h-297zM879 1061v-911l63 -150h-360v106l-43 -57q-40 -49 -105 -49h-76q-114 0 -184 70t-70 184v659l-63 148h360v-785q0 -29 18 -46t46 -17h117v700l-64 148h361z" />
    <glyph glyph-name="udieresis" unicode="&#xfc;" horiz-adv-x="946" 
d="M510 1286q0 58 41 98.5t100 40.5q57 0 98.5 -41t41.5 -98t-41.5 -98t-98.5 -41q-59 0 -100 40.5t-41 98.5zM197 1286q0 57 40.5 98t98.5 41t99.5 -41t41.5 -98t-41.5 -98t-99.5 -41t-98.5 41t-40.5 98zM879 1061v-911l63 -150h-360v106l-43 -57q-40 -49 -105 -49h-76
q-114 0 -184 70t-70 184v659l-63 148h360v-785q0 -29 18 -46t46 -17h117v700l-64 148h361z" />
    <glyph glyph-name="yacute" unicode="&#xfd;" horiz-adv-x="923" 
d="M408 1147h-127l106 338h297zM401 276q0 -29 18 -46t46 -17h117v700l-64 148h361v-1231q0 -116 -69.5 -185t-184.5 -69h-480v291l140 -80h233q29 0 46.5 17.5t17.5 45.5v150h-224q-114 0 -184 70t-70 184v659l-63 148h360v-785z" />
    <glyph glyph-name="thorn" unicode="&#xfe;" horiz-adv-x="892" 
d="M838 807v-553q0 -114 -69.5 -184t-184.5 -70h-224v-276l64 -148h-424l63 148v1613l-63 148h360v-531l46 58q17 23 45.5 36t58.5 13h74q115 0 184.5 -70t69.5 -184zM541 786q0 28 -17.5 46t-46.5 18h-117v-637h117q29 0 46.5 17t17.5 46v510z" />
    <glyph glyph-name="ydieresis" unicode="&#xff;" horiz-adv-x="923" 
d="M500 1286q0 57 40.5 98t98.5 41t99.5 -41t41.5 -98t-41.5 -98t-99.5 -41t-98.5 41t-40.5 98zM184 1286q0 57 42 98t100 41q57 0 98 -41t41 -98t-41 -98t-98 -41q-58 0 -100 41t-42 98zM401 276q0 -29 18 -46t46 -17h117v700l-64 148h361v-1231q0 -116 -69.5 -185
t-184.5 -69h-480v291l140 -80h233q29 0 46.5 17.5t17.5 45.5v150h-224q-114 0 -184 70t-70 184v659l-63 148h360v-785z" />
    <glyph glyph-name="Dcroat" unicode="&#x110;" horiz-adv-x="1148" 
d="M94 0l64 150v501h-117v213h117v473l-64 148h758q116 0 185 -69.5t69 -184.5v-977q0 -114 -69.5 -184t-184.5 -70h-758zM475 213h250q28 0 45.5 17t17.5 46v934q0 28 -17.5 46t-45.5 18h-250v-410h150v-213h-150v-438z" />
    <glyph glyph-name="dcroat" unicode="&#x111;" horiz-adv-x="915" 
d="M106 254v553q0 114 70 184t184 70h224v55h-174v213h174v8l-64 148h361v-156h166v-213h-166v-966l63 -150h-360v106l-45 -57q-17 -23 -45.5 -36t-57.5 -13h-76q-114 0 -184 70t-70 184zM403 276q0 -29 18 -46t46 -17h117v637h-117q-28 0 -46 -18t-18 -46v-510z" />
    <glyph glyph-name="idotless" unicode="&#x131;" horiz-adv-x="473" 
d="M49 0l64 150v763l-64 148h361v-911l63 -150h-424z" />
    <glyph glyph-name="Lslash" unicode="&#x141;" horiz-adv-x="894" 
d="M90 1485h445l-64 -148v-475l260 111v-232l-260 -110v-418h311l140 78v-291h-832l64 150v344l-105 -45v231l105 43v614z" />
    <glyph glyph-name="lslash" unicode="&#x142;" horiz-adv-x="628" 
d="M33 449v231l162 70v587l-64 148h361v-608l131 57v-232l-131 -57v-495l63 -150h-424l64 150v368z" />
    <glyph glyph-name="OE" unicode="&#x152;" horiz-adv-x="1544" 
d="M123 254v977q0 115 70 184.5t184 69.5h1188v-289l-142 78h-309v-424h248l149 63v-340l-149 64h-248v-424h309l142 78v-291h-1188q-114 0 -184 70t-70 184zM506 213h225q30 0 48 17t18 46v934q0 28 -18.5 46t-47.5 18h-225q-29 0 -47.5 -18t-18.5 -46v-934q0 -29 18 -46
t48 -17z" />
    <glyph glyph-name="oe" unicode="&#x153;" horiz-adv-x="1357" 
d="M106 254v553q0 114 70 184t184 70h267q54 0 106 -19q49 19 107 19h264q115 0 184.5 -70t69.5 -184v-205q0 -28 -17 -50.5t-45 -29.5l-415 -123v-123q0 -29 17.5 -46t45.5 -17h53q29 0 46.5 17t17.5 46v117l297 64v-203q0 -114 -69.5 -184t-184.5 -70h-264q-60 0 -107 18
q-49 -18 -106 -18h-267q-114 0 -184 70t-70 184zM881 621l180 53v112q0 28 -17.5 46t-46.5 18h-53q-28 0 -45.5 -18t-17.5 -46v-165zM467 213h53q29 0 46.5 17t17.5 46v510q0 28 -17.5 46t-46.5 18h-53q-28 0 -46 -18t-18 -46v-510q0 -29 18 -46t46 -17z" />
    <glyph glyph-name="Scaron" unicode="&#x160;" horiz-adv-x="1052" 
d="M502 1571l-277 338h297l56 -176l55 176h297l-277 -338h-151zM481 946l412 -145q71 -26 114.5 -89t43.5 -139v-319q0 -114 -69.5 -184t-184.5 -70h-418q-115 0 -185.5 70t-70.5 184v373l319 -107v-244q0 -29 17.5 -46t46.5 -17h164q28 0 45.5 17t17.5 46v179
q0 29 -16.5 52t-42.5 32l-412 147q-72 25 -116 87.5t-44 139.5v318q0 115 70 184.5t184 69.5h420q114 0 184 -69.5t70 -184.5v-379l-319 104v254q0 28 -17.5 46t-46.5 18h-162q-29 0 -47 -18t-18 -46v-178q0 -29 16.5 -53t44.5 -33z" />
    <glyph glyph-name="scaron" unicode="&#x161;" horiz-adv-x="870" 
d="M406 1147l-275 338h297l55 -176l54 176h299l-277 -338h-153zM416 696l393 -143q28 -10 43.5 -33.5t15.5 -52.5v-213q0 -114 -69.5 -184t-184.5 -70h-254q-115 0 -185.5 70t-70.5 184v182l297 -86v-74q0 -29 18 -46t46 -17h43q29 0 46 17t17 46v58q0 24 -22 31l-395 145
q-27 9 -43.5 32.5t-16.5 51.5v213q0 114 70 184t184 70h256q114 0 184 -70t70 -184v-201l-297 105v75q0 28 -17 46t-46 18h-43q-28 0 -46 -18t-18 -46v-57q0 -26 25 -33z" />
    <glyph glyph-name="Ydieresis" unicode="&#x178;" horiz-adv-x="1212" 
d="M594 1710q0 58 41 98.5t100 40.5q57 0 98 -41t41 -98t-41 -98t-98 -41q-59 0 -100 40.5t-41 98.5zM281 1710q0 57 40.5 98t98.5 41t99.5 -41t41.5 -98t-41.5 -98t-99.5 -41t-98.5 41t-40.5 98zM354 0l64 150v555l-340 632l-135 148h483l8 -148l144 -348l141 348l8 148
h485l-137 -148l-338 -630v-557l64 -150h-447z" />
    <glyph glyph-name="Zcaron" unicode="&#x17d;" horiz-adv-x="972" 
d="M424 1571l-274 338h296l56 -176l53 176h299l-276 -338h-154zM29 0v106l532 1168h-379l-141 -78v289h920v-105l-531 -1167h401l140 78v-291h-942z" />
    <glyph glyph-name="zcaron" unicode="&#x17e;" horiz-adv-x="827" 
d="M365 1147l-277 338h297l55 -176l56 176h297l-277 -338h-151zM53 0v106l375 744h-221l-141 -80v291h749v-107l-375 -741h246l139 78v-291h-772z" />
    <glyph glyph-name="fhook" unicode="&#x192;" horiz-adv-x="659" 
d="M-117 1061h78l31 170q22 115 103.5 184.5t195.5 69.5h233l-49 -289q-29 44 -62.5 61t-54.5 17q-28 0 -48 -18t-25 -46l-27 -149h160l-37 -211h-160l-180 -1020q-20 -115 -101.5 -184.5t-197.5 -69.5h-234l52 291q29 -44 62.5 -62t53.5 -18q26 0 47 17.5t25 45.5l176 1000
h-76z" />
    <glyph glyph-name="circumflexmod" unicode="&#x2c6;" horiz-adv-x="739" 
d="M309 1485h152l276 -338h-297l-55 176l-55 -176h-297z" />
    <glyph glyph-name="caronmod" unicode="&#x2c7;" horiz-adv-x="735" 
d="M305 1147l-276 338h297l55 -176l55 176h297l-276 -338h-152z" />
    <glyph glyph-name="brevemod" unicode="&#x2d8;" horiz-adv-x="561" 
d="M561 1483q0 -119 -71 -207t-181 -88t-181 88t-71 207h127q0 -33 8.5 -57t20.5 -37t30.5 -20t33 -9t32.5 -2q23 0 40.5 4t38.5 15t32.5 38t11.5 68h129z" />
    <glyph glyph-name="dotaccentmod" unicode="&#x2d9;" horiz-adv-x="385" 
d="M66 1305q0 66 46 112.5t113 46.5q65 0 111.5 -46.5t46.5 -112.5q0 -65 -46.5 -111.5t-111.5 -46.5q-67 0 -113 46.5t-46 111.5z" />
    <glyph glyph-name="ringmod" unicode="&#x2da;" horiz-adv-x="497" 
d="M66 1362q0 97 60 156t157 59q95 0 154 -59t59 -156t-59 -156t-154 -59q-97 0 -157 59t-60 156zM193 1362q0 -40 25 -64t65 -24q38 0 62 24t24 64q0 38 -24 63t-62 25q-40 0 -65 -25t-25 -63z" />
    <glyph glyph-name="ogonekmod" unicode="&#x2db;" horiz-adv-x="106" 
d="M-106 0q-3 -5 -38 -52t-46 -65t-26 -55t-15 -68q0 -55 32 -102t84 -47q18 0 39 6v-63q-84 -10 -151 4t-105.5 45.5t-58 70.5t-19.5 82q0 138 213 244h91z" />
    <glyph glyph-name="tildemod" unicode="&#x2dc;" horiz-adv-x="763" 
d="M219 1147h-170q-7 139 51 226t158 87q52 0 108 -25.5t99 -51t63 -25.5q24 0 37 26t10 76h170q15 -155 -38 -234t-158 -79q-46 0 -89 15.5t-69 34.5t-54 34.5t-48 15.5q-31 0 -50.5 -30t-19.5 -70z" />
    <glyph glyph-name="doubleacutemod" unicode="&#x2dd;" horiz-adv-x="774" 
d="M512 1147h-127l104 338h299zM184 1147h-127l107 338h297z" />
    <glyph glyph-name="mu-grek" unicode="&#x3bc;" horiz-adv-x="976" 
d="M911 1061v-911l64 -150h-361v106l-43 -57q-40 -49 -104 -49h-76q-23 0 -33 2l76 -373h-297v1284l-63 148h360v-785q0 -29 18 -46t46 -17h116v700l-63 148h360z" />
    <glyph glyph-name="endash" unicode="&#x2013;" 
d="M911 467h-850v213h850v-213z" />
    <glyph glyph-name="emdash" unicode="&#x2014;" horiz-adv-x="1822" 
d="M1821 467h-1760v213h1760v-213z" />
    <glyph glyph-name="quoteleft" unicode="&#x2018;" horiz-adv-x="391" 
d="M279 1235q55 -23 83.5 -63.5t28.5 -90.5q0 -66 -46 -112.5t-112 -46.5q-69 0 -114 55.5t-45 155.5q0 125 70.5 220t187.5 132l26 -47q-94 -34 -122 -88q-25 -45 -14 -70t57 -45z" />
    <glyph glyph-name="quoteright" unicode="&#x2019;" horiz-adv-x="391" 
d="M184 1171q-55 25 -84.5 65.5t-29.5 90.5q0 65 46 111.5t113 46.5q68 0 113 -55.5t45 -155.5q0 -125 -70 -219t-188 -133l-25 49q87 29 123 86q24 45 13 70.5t-56 43.5z" />
    <glyph glyph-name="quotesinglbase" unicode="&#x201a;" horiz-adv-x="385" 
d="M180 4q-55 25 -84.5 65.5t-29.5 90.5q0 65 46 112t113 47q68 0 113 -56.5t45 -156.5q0 -125 -70 -219t-188 -133l-25 49q87 29 123 86q47 79 -43 115z" />
    <glyph glyph-name="quotereversed" unicode="&#x201b;" horiz-adv-x="391" 
d="M279 1171q-45 -18 -56.5 -43.5t13.5 -70.5q31 -55 122 -86l-26 -49q-117 39 -187.5 133.5t-70.5 218.5q0 100 45 155.5t114 55.5q66 0 112 -46.5t46 -111.5q0 -106 -112 -156z" />
    <glyph glyph-name="quotedblleft" unicode="&#x201c;" horiz-adv-x="782" 
d="M279 1235q55 -23 83.5 -63.5t28.5 -90.5q0 -66 -46 -112.5t-112 -46.5q-69 0 -114 55.5t-45 155.5q0 125 70.5 220t187.5 132l26 -47q-94 -34 -122 -88q-25 -45 -14 -70t57 -45zM668 1235q55 -23 84.5 -63.5t29.5 -90.5q0 -66 -46 -112.5t-113 -46.5q-68 0 -113 55.5
t-45 155.5q0 125 70.5 220t187.5 132l27 -47q-92 -33 -125 -88q-24 -45 -13 -70t56 -45z" />
    <glyph glyph-name="quotedblright" unicode="&#x201d;" horiz-adv-x="782" 
d="M575 1171q-56 24 -85 65t-29 91q0 65 45.5 111.5t111.5 46.5q69 0 114.5 -55.5t45.5 -155.5q0 -124 -70.5 -218.5t-187.5 -133.5l-26 49q91 30 122 86q26 45 15 70.5t-56 43.5zM184 1171q-55 25 -84.5 65.5t-29.5 90.5q0 65 46 111.5t113 46.5q68 0 113 -55.5t45 -155.5
q0 -125 -70 -219t-188 -133l-25 49q87 29 123 86q24 45 13 70.5t-56 43.5z" />
    <glyph glyph-name="quotedblbase" unicode="&#x201e;" horiz-adv-x="776" 
d="M571 4q-114 50 -114 156q0 65 46 112t111 47q69 0 114.5 -56.5t45.5 -156.5q0 -124 -70.5 -218.5t-187.5 -133.5l-27 49q92 30 123 86q26 45 15 71t-56 44zM180 4q-55 25 -84.5 65.5t-29.5 90.5q0 65 46 112t113 47q68 0 113 -56.5t45 -156.5q0 -125 -70 -219t-188 -133
l-25 49q87 29 123 86q47 79 -43 115z" />
    <glyph glyph-name="dagger" unicode="&#x2020;" horiz-adv-x="1071" 
d="M539 -424v1274h-318v211h318v424h213v-424h319v-211h-319v-1274h-213z" />
    <glyph glyph-name="daggerdbl" unicode="&#x2021;" horiz-adv-x="907" 
d="M375 -424v424h-318v213h318v637h-318v211h318v424h213v-424h319v-211h-319v-637h319v-213h-319v-424h-213z" />
    <glyph glyph-name="bullet" unicode="&#x2022;" horiz-adv-x="651" 
d="M74 739q0 118 84 203.5t204 85.5q118 0 203.5 -86t85.5 -203q0 -118 -85 -203t-204 -85q-121 0 -204.5 84.5t-83.5 203.5z" />
    <glyph glyph-name="ellipsis" unicode="&#x2026;" horiz-adv-x="1437" 
d="M1118 160q0 65 46.5 112t113.5 47q64 0 111 -47t47 -112q0 -66 -46.5 -113t-111.5 -47q-67 0 -113.5 47t-46.5 113zM592 160q0 65 46.5 112t113.5 47q64 0 110.5 -47t46.5 -112q0 -66 -46 -113t-111 -47q-67 0 -113.5 47t-46.5 113zM66 160q0 65 46 112t113 47
q64 0 111 -47t47 -112q0 -66 -46.5 -113t-111.5 -47q-67 0 -113 47t-46 113z" />
    <glyph glyph-name="perthousand" unicode="&#x2030;" horiz-adv-x="2068" 
d="M82 795v546q0 66 39.5 105t105.5 39h191q63 0 102 -39t39 -105v-546q0 -66 -39 -106t-102 -40h-191q-66 0 -105.5 40t-39.5 106zM305 0l785 1485h182l-785 -1485h-182zM297 768h49q15 0 25 10t10 27v526q0 15 -10 25t-25 10h-49q-17 0 -27 -10t-10 -25v-526q0 -37 37 -37
zM1591 145v547q0 64 39.5 104t104.5 40h192q63 0 102 -40t39 -104v-547q0 -66 -39 -105.5t-102 -39.5h-192q-65 0 -104.5 39.5t-39.5 105.5zM1006 145v547q0 65 39.5 104.5t103.5 39.5h192q63 0 102.5 -40t39.5 -104v-547q0 -66 -39.5 -105.5t-102.5 -39.5h-192
q-65 0 -104 39.5t-39 105.5zM1806 119h47q37 0 37 37v526q0 15 -10 25t-27 10h-47q-17 0 -27 -10t-10 -25v-526q0 -37 37 -37zM1221 119h47q37 0 37 37v526q0 15 -10 25t-27 10h-47q-17 0 -27 -10t-10 -25v-526q0 -37 37 -37z" />
    <glyph glyph-name="guilsinglleft" unicode="&#x2039;" horiz-adv-x="698" 
d="M221 481l359 482h213l-261 -482l261 -479h-213z" />
    <glyph glyph-name="guilsinglright" unicode="&#x203a;" horiz-adv-x="698" 
d="M604 481l-358 -479h-213l258 479l-258 482h213z" />
    <glyph glyph-name="fraction" unicode="&#x2044;" horiz-adv-x="989" 
d="M221 0l541 1485h225l-541 -1485h-225z" />
    <glyph glyph-name="zerosuperior" unicode="&#x2070;" horiz-adv-x="585" 
d="M106 795v546q0 66 40 105t106 39h190q64 0 103 -39.5t39 -104.5v-546q0 -66 -39.5 -106t-102.5 -40h-190q-66 0 -106 40t-40 106zM322 768h49q15 0 25 10t10 27v526q0 15 -10 25t-25 10h-49q-17 0 -27 -10t-10 -25v-526q0 -37 37 -37z" />
    <glyph glyph-name="foursuperior" unicode="&#x2074;" horiz-adv-x="606" 
d="M313 649l37 86v105h-293v155l293 490h178v-490h66v-155h-66v-105l37 -86h-252zM197 995h153v256z" />
    <glyph glyph-name="euro" unicode="&#x20ac;" horiz-adv-x="1157" 
d="M193 254v252h-107v211h107v59h-107v213h107v242q0 115 69.5 184.5t183.5 69.5h441q114 0 184 -69.5t70 -184.5v-223l-318 -105v307q0 28 -17.5 46t-45.5 18h-187q-28 0 -45.5 -18t-17.5 -46v-221h258v-213h-258v-59h258v-211h-258v-230q0 -29 17.5 -46t45.5 -17h187
q28 0 45.5 17t17.5 46v244l318 107v-373q0 -114 -70 -184t-184 -70h-441q-114 0 -183.5 70t-69.5 184z" />
    <glyph glyph-name="trademark" unicode="&#x2122;" horiz-adv-x="1720" 
d="M866 567l39 90v738l-39 90h330l131 -567l129 567h332l-41 -90v-738l41 -90h-277l39 90v531l-143 -621h-160l-145 621v-531l41 -90h-277zM387 567l41 90v697h-119l-88 -49v180h606v-180l-86 49h-118v-697l41 -90h-277z" />
    <glyph glyph-name="minus" unicode="&#x2212;" 
d="M911 580h-850v213h850v-213z" />
    <glyph glyph-name="glyph177" unicode="&#xf000;" horiz-adv-x="1126" 
d="M432 150l64 -150h-447l64 150v1081q0 115 70 184.5t184 69.5h440q115 0 184.5 -69.5t69.5 -184.5v-1081l63 -150h-444l63 150v415h-311v-415zM432 776h311v434q0 28 -17.5 46t-45.5 18h-184q-29 0 -46.5 -18t-17.5 -46v-434z" />
    <glyph glyph-name="glyph178" unicode="&#xf001;" horiz-adv-x="1103" 
d="M49 0l64 150v1081q0 115 70 184.5t184 69.5h440q115 0 184.5 -69.5t69.5 -184.5v-1294l86 -150l-404 -20v798h-311v-415l64 -150h-447zM432 776h311v434q0 28 -17.5 46t-45.5 18h-184q-29 0 -46.5 -18t-17.5 -46v-434z" />
    <glyph glyph-name="glyph179" unicode="&#xf002;" horiz-adv-x="1175" 
d="M57 0l64 150v1187l-64 148h447l-64 -148v-487h355v487l-64 148h445l-64 -148v-1400l86 -150l-403 -20v870h-355v-487l64 -150h-447z" />
    <glyph glyph-name="glyph180" unicode="&#xf003;" horiz-adv-x="1544" 
d="M57 0l64 150v1187l-64 148h533l213 -918l209 918h532l-63 -148v-1400l86 -150l-404 -20v1239l-231 -1006h-260l-232 1006v-856l64 -150h-447z" />
    <glyph glyph-name="glyph181" unicode="&#xf004;" horiz-adv-x="1114" 
d="M123 254v977q0 115 70 184.5t184 69.5h483q114 0 184 -69.5t70 -184.5v-977q0 -114 -70 -184t-184 -70h-483q-114 0 -184 70t-70 184zM506 213h225q30 0 48 17t18 46v934q0 28 -18.5 46t-47.5 18h-225q-29 0 -47.5 -18t-18.5 -46v-934q0 -29 18 -46t48 -17zM240 -352v254
h792v-254h-792z" />
    <glyph glyph-name="glyph182" unicode="&#xf005;" horiz-adv-x="1101" 
d="M57 0l64 150v1187l-64 148h758q115 0 184.5 -69.5t69.5 -184.5v-316q0 -56 -60.5 -99.5t-146.5 -47.5q95 -14 151 -65t56 -107v-659l86 -150l-403 -20v808q0 29 -18 46.5t-46 17.5h-248v-489l64 -150h-447zM688 852q28 0 46 17t18 46v295q0 28 -18 46t-46 18h-248v-422
h248z" />
    <glyph glyph-name="glyph183" unicode="&#xf006;" horiz-adv-x="917" 
d="M584 0v106l-45 -57q-17 -23 -45.5 -36t-57.5 -13h-76q-114 0 -184 70t-70 184v553q0 114 70 184t184 70h76q29 0 57.5 -13t45.5 -36l45 -58v107h360l-63 -148v-763l63 -150h-360zM584 213v637h-117q-28 0 -46 -18t-18 -46v-510q0 -29 18 -46t46 -17h117z" />
    <glyph glyph-name="glyph184" unicode="&#xf007;" horiz-adv-x="567" 
d="M-61 1061h75v170q0 115 70 184.5t186 69.5h234v-289q-36 44 -72 61t-59 17q-26 0 -44 -18t-18 -46v-149h160v-211h-160v-1020q0 -116 -69.5 -185t-184.5 -69h-233v291q36 -44 72.5 -62t56.5 -18q28 0 44.5 17.5t16.5 45.5v1000h-75v211z" />
    <glyph glyph-name="glyph185" unicode="&#xf008;" horiz-adv-x="919" 
d="M586 786q0 28 -17.5 46t-46.5 18h-116v-700l63 -150h-424l64 150v1187l-64 148h361v-424h223q115 0 184.5 -70t69.5 -184v-870l86 -150l-383 -20v1019z" />
    <glyph glyph-name="glyph186" unicode="&#xf009;" horiz-adv-x="425" 
d="M63 -233v1570l-63 148h360v-1548l86 -150z" />
    <glyph glyph-name="glyph187" unicode="&#xf00a;" horiz-adv-x="1398" 
d="M1368 807v-870l84 -150l-383 -20v1019q0 28 -17 46t-46 18h-115v-700l63 -150h-424l64 150v636q0 28 -17.5 46t-46.5 18h-116v-700l63 -150h-424l64 150v763l-64 148h361v-107l45 58q17 23 45.5 36t58.5 13h74q141 0 211 -103q33 38 81.5 70.5t88.5 32.5h94
q115 0 185.5 -70t70.5 -184z" />
    <glyph glyph-name="glyph188" unicode="&#xf00b;" horiz-adv-x="923" 
d="M53 0l64 150v763l-64 148h361v-107l45 58q17 23 45.5 36t58.5 13h74q115 0 184.5 -70t69.5 -184v-870l86 -150l-383 -20v1019q0 28 -17.5 46t-46.5 18h-116v-700l63 -150h-424z" />
    <glyph glyph-name="glyph189" unicode="&#xf00c;" horiz-adv-x="1667" 
d="M57 0l64 150v1187l-64 148h1647v-289l-139 78h-191v-1124l64 -150h-447l64 150v1124h-615v-424h248l148 63v-340l-148 64h-248v-424h310l139 78v-291h-832z" />
    <glyph glyph-name="glyph190" unicode="&#xf00d;" horiz-adv-x="1554" 
d="M57 0l64 150v1187l-64 148h1534v-289l-139 78h-190v-1124l63 -150h-446l63 150v1124h-502v-424h248l148 63v-340l-148 64h-248v-487l64 -150h-447z" />
    <glyph glyph-name="glyph191" unicode="&#xf00e;" horiz-adv-x="1316" 
d="M584 1485h446l-63 -148v-749h221l141 78v-289h-745l63 147v813zM57 1485h447l-64 -148v-1124h748l141 78v-291h-1272l64 150v1187z" />
    <glyph glyph-name="glyph192" unicode="&#xf00f;" horiz-adv-x="1355" 
d="M584 1485h745v-289l-141 78h-221v-213h155l150 63v-338l-150 64h-155v-262h221l141 78v-289h-745l63 147v813zM57 1485h447l-64 -148v-1124h748l141 78v-291h-1272l64 150v1187z" />
    <glyph glyph-name="glyph193" unicode="&#xf010;" horiz-adv-x="1406" 
d="M573 631v600q0 115 70 184.5t184 69.5h301q116 0 186 -69.5t70 -184.5v-600q0 -115 -70 -184.5t-186 -69.5h-301q-114 0 -184 69.5t-70 184.5zM57 1485h447l-64 -148v-1124h748l141 78v-291h-1272l64 150v1187zM954 588h47q29 0 46.5 17.5t17.5 45.5v559q0 28 -17.5 46
t-46.5 18h-47q-28 0 -45.5 -18t-17.5 -46v-559q0 -28 17.5 -45.5t45.5 -17.5z" />
    <glyph glyph-name="glyph194" unicode="&#xf011;" horiz-adv-x="1499" 
d="M965 1337v-680q0 -28 17 -45.5t46 -17.5h31q29 0 46 17.5t17 45.5v680l-63 148h446l-63 -148v-700q0 -115 -70 -184.5t-186 -69.5h-287q-114 0 -184 69.5t-70 184.5v700l-63 148h446zM57 1485h447l-64 -148v-1124h838l139 78v-291h-1360l64 150v1187z" />
    <glyph glyph-name="glyph195" unicode="&#xf012;" horiz-adv-x="1036" 
d="M580 377l63 147v813l-63 148h446l-63 -148v-813l63 -147h-446zM57 1485h447l-64 -148v-1124h445l141 78v-291h-969l64 150v1187z" />
    <glyph glyph-name="glyph196" unicode="&#xf013;" horiz-adv-x="1447" 
d="M905 530l64 -147h-447l64 147v701q0 115 70 184.5t184 69.5h286q116 0 186 -69.5t70 -184.5v-701l64 -147h-447l64 147v242h-158v-242zM57 1485h447l-64 -148v-1124h834l139 78v-291h-1356l64 150v1187zM905 985h158v225q0 28 -17.5 46t-46.5 18h-30q-29 0 -46.5 -18
t-17.5 -46v-225z" />
    <glyph glyph-name="glyph197" unicode="&#xf014;" horiz-adv-x="1556" 
d="M248 0l63 150v1124h-192l-139 -78v289h1576v-289l-139 78h-192v-1124l63 -150h-444l63 150v1124h-278v-1124l63 -150h-444z" />
    <glyph glyph-name="fi" unicode="&#xfb01;" horiz-adv-x="1017" 
d="M686 1485v-289q-63 78 -160 78q-96 0 -96 -64v-149h528v-911l66 -150h-426l64 150v700h-232v-700l66 -150h-426l63 150v700h-76v211h76v170q0 115 70 184.5t186 69.5h297z" />
    <glyph glyph-name="fl" unicode="&#xfb02;" horiz-adv-x="1075" 
d="M623 1485v-289q-36 44 -72 61t-59 17q-26 0 -44 -18t-18 -46v-149h160v-211h-160v-700l66 -150h-426l63 150v700h-76v211h76v170q0 115 70 184.5t186 69.5h234zM655 0l64 150v1187l-64 148h361v-1335l63 -150h-424z" />
    </font>
</defs>
</svg>
